<svg xmlns="http://www.w3.org/2000/svg" width="100" height="100" viewBox="0 0 100 100">
    <g data-name="Group 10373" transform="translate(-159 -3105)">
        <rect data-name="Rectangle 17" width="100" height="100" rx="10" transform="translate(159 3105)" style="fill:#e3faf0"/>
        <path data-name="Path 339" d="M221.933 1628h2v2h-2z" transform="translate(4 1512)" style="fill:#53c092"/>
        <path data-name="Path 340" d="M222.933 1624a4.979 4.979 0 0 0-4.937 4.21l1.975.31a3 3 0 0 1 5.925 0l1.975-.31a4.979 4.979 0 0 0-4.938-4.21z" transform="translate(4 1512)" style="fill:#53c092"/>
        <path data-name="Path 341" d="M222.933 1622a6.993 6.993 0 0 1 6.184 3.72l1.766-.94a9 9 0 0 0-15.9 0l1.766.94a6.993 6.993 0 0 1 6.184-3.72z" transform="translate(4 1512)" style="fill:#53c092"/>
        <path data-name="Path 342" d="M223 1637a12.016 12.016 0 1 0-8.481-3.52A11.989 11.989 0 0 0 223 1637zm0-22a10.007 10.007 0 1 1-7.068 2.93A10 10 0 0 1 223 1615z" transform="translate(4 1512)" style="fill:#53c092"/>
        <path data-name="Path 343" d="M187 1637a12.016 12.016 0 1 0-8.481-3.52A11.989 11.989 0 0 0 187 1637zm0-22a10.007 10.007 0 1 1-7.068 2.93A10 10 0 0 1 187 1615z" transform="translate(4 1512)" style="fill:#53c092"/>
        <path data-name="Path 344" d="M230 1665c0-2.48-1.374-5-4-5s-4 2.52-4 5c0 .56-.216.8-.7 1.29a3.618 3.618 0 0 0-1.3 2.74 3.74 3.74 0 0 0 .553 1.97H211v-13a6 6 0 0 0-12 0v13h-2v2h31a4.3 4.3 0 0 0 2.492-.94 3.8 3.8 0 0 0 1.508-3.03 3.621 3.621 0 0 0-1.295-2.74c-.489-.49-.705-.73-.705-1.29zm-29-7a4 4 0 1 1 8 0v13h-8zm27 13h-4a2.159 2.159 0 0 1-2-1.97c0-.58.219-.83.715-1.33A3.55 3.55 0 0 0 224 1665c0-2.37 1.308-3 2-3 1.582 0 2 1.96 2 3a3.554 3.554 0 0 0 1.285 2.7c.5.5.715.75.715 1.33a2.159 2.159 0 0 1-2 1.97z" transform="translate(4 1512)" style="fill:#53c092"/>
        <path data-name="Path 345" d="M227 1658v-17h3a.969.969 0 0 0 .469-.12.9.9 0 0 0 .359-.32.965.965 0 0 0 .166-.45.981.981 0 0 0-.066-.48l-1.2-3-1.856.74.651 1.63h-47.046l.651-1.63-1.856-.74-1.2 3a.981.981 0 0 0-.066.48.965.965 0 0 0 .166.45.9.9 0 0 0 .359.32.969.969 0 0 0 .469.12h3v15h2v-15h40v17z" transform="translate(4 1512)" style="fill:#53c092"/>
        <path data-name="Path 346" d="M203 1661h2v2h-2z" transform="translate(4 1512)" style="fill:#53c092"/>
        <path data-name="Path 347" d="M195 1650h-6a1.029 1.029 0 0 0-.707.29 1 1 0 0 0-.293.71v3h2v-2h4v5h2v-6a1 1 0 0 0-.293-.71 1.029 1.029 0 0 0-.707-.29z" transform="translate(4 1512)" style="fill:#53c092"/>
        <path data-name="Path 348" d="M214 1651v9a1 1 0 0 0 .293.71 1.029 1.029 0 0 0 .707.29h6a1.029 1.029 0 0 0 .707-.29 1 1 0 0 0 .293-.71v-9a1 1 0 0 0-.293-.71 1.029 1.029 0 0 0-.707-.29h-6a1.029 1.029 0 0 0-.707.29 1 1 0 0 0-.293.71zm2 8v-2h4v2zm4-7v3h-4v-3z" transform="translate(4 1512)" style="fill:#53c092"/>
        <path data-name="Path 349" d="M191 1646h2v2h-2z" transform="translate(4 1512)" style="fill:#53c092"/>
        <path data-name="Path 350" d="M217 1646h2v2h-2z" transform="translate(4 1512)" style="fill:#53c092"/>
        <path data-name="Path 351" d="M194 1659h-3v-2a.973.973 0 0 0-.553-.89 1 1 0 0 0-.537-.11 1.05 1.05 0 0 0-.51.2l-3.733 2.8H176a1.029 1.029 0 0 0-.707.29 1 1 0 0 0-.293.71v12a1 1 0 0 0 .293.71 1.029 1.029 0 0 0 .707.29h18a1.029 1.029 0 0 0 .707-.29 1 1 0 0 0 .293-.71v-12a1 1 0 0 0-.293-.71 1.029 1.029 0 0 0-.707-.29zm-1 12h-16v-10h9a1 1 0 0 0 .6-.2l2.4-1.8v1a1 1 0 0 0 .293.71 1.029 1.029 0 0 0 .707.29h3z" transform="translate(4 1512)" style="fill:#53c092"/>
        <path data-name="Path 352" d="M179 1663h12v2h-12z" transform="translate(4 1512)" style="fill:#53c092"/>
        <path data-name="Path 353" d="M179 1667h12v2h-12z" transform="translate(4 1512)" style="fill:#53c092"/>
        <path data-name="Path 354" d="M186 1619h2v8h-2z" transform="translate(4 1512)" style="fill:#53c092"/>
        <path data-name="Path 355" d="M186 1629h2v2h-2z" transform="translate(4 1512)" style="fill:#53c092"/>
        <path data-name="Path 356" d="M200 1629h10v2h-10z" transform="translate(4 1512)" style="fill:#53c092"/>
    </g>
</svg>
