<svg xmlns="http://www.w3.org/2000/svg" width="100" height="100" viewBox="0 0 100 100">
    <g data-name="Group 10374" transform="translate(-159 -3269)">
        <path data-name="Path 357" d="M202 1781h2v2h-2z" transform="translate(4 1512)" style="fill:#53c092"/>
        <path data-name="Path 358" d="M206 1781h2v2h-2z" transform="translate(4 1512)" style="fill:#53c092"/>
        <path data-name="Path 362" d="M181 1785h2v2h-2z" transform="translate(4 1512)" style="fill:#53c092"/>
        <path data-name="Path 365" d="M227 1785h2v2h-2z" transform="translate(4 1512)" style="fill:#53c092"/>
        <rect data-name="Rectangle 21" width="100" height="100" rx="10" transform="translate(159 3269)" style="fill:#e3faf0"/>
        <path data-name="Path 359" d="M204 1831h2v2h-2z" transform="translate(4 1512)" style="fill:#53c092"/>
        <path data-name="Path 360" d="M205 1818a3 3 0 0 0-2.121 5.12 3 3 0 0 0 3.269.65A2.988 2.988 0 0 0 208 1821a3 3 0 0 0-3-3zm0 4a1 1 0 0 1-.556-.17.971.971 0 0 1-.368-.45 1 1 0 0 1-.057-.58.992.992 0 0 1 .786-.78.957.957 0 0 1 .578.06.973.973 0 0 1 .448.36 1.022 1.022 0 0 1 .169.56 1 1 0 0 1-.293.71 1.031 1.031 0 0 1-.707.29z" transform="translate(4 1512)" style="fill:#53c092"/>
        <path data-name="Path 361" d="M208 1814.67V1787a1 1 0 0 0-.293-.71 1.029 1.029 0 0 0-.707-.29h-4a1.029 1.029 0 0 0-.707.29 1 1 0 0 0-.293.71v2h-6a.958.958 0 0 0-.439.1 1.026 1.026 0 0 0-.349.28 1.007 1.007 0 0 0-.182.86l1 4a1.007 1.007 0 0 0 .355.55.979.979 0 0 0 .615.21h5v2h-4a.958.958 0 0 0-.439.1 1.026 1.026 0 0 0-.349.28 1.007 1.007 0 0 0-.182.86l1 4a1.007 1.007 0 0 0 .355.55.979.979 0 0 0 .615.21h3v11.67a7 7 0 1 0 6 0zm-3 11.33a5 5 0 0 1-1.667-9.71 1.013 1.013 0 0 0 .667-.95V1802a1 1 0 0 0-.293-.71 1.029 1.029 0 0 0-.707-.29h-3.219l-.5-2H203a1.029 1.029 0 0 0 .707-.29 1 1 0 0 0 .293-.71v-4a1 1 0 0 0-.293-.71 1.029 1.029 0 0 0-.707-.29h-5.219l-.5-2H203a1.029 1.029 0 0 0 .707-.29 1 1 0 0 0 .293-.71v-2h2v27.34a1.01 1.01 0 0 0 .667.95A5 5 0 0 1 205 1826z" transform="translate(4 1512)" style="fill:#53c092"/>
        <path data-name="Path 363" d="M175 1809h2v2h-2z" transform="translate(4 1512)" style="fill:#53c092"/>
        <path data-name="Path 364" d="M183 1827h2v2h-2z" transform="translate(4 1512)" style="fill:#53c092"/>
        <path data-name="Path 366" d="M233 1809h2v2h-2z" transform="translate(4 1512)" style="fill:#53c092"/>
        <path data-name="Path 367" d="M225 1827h2v2h-2z" transform="translate(4 1512)" style="fill:#53c092"/>
        <path data-name="Path 368" d="M227.707 1813.29a1.027 1.027 0 0 0-.324-.21 1.016 1.016 0 0 0-.383-.08h-4v-2h8v-2h-8v-2h6a1.016 1.016 0 0 0 .383-.08 1.027 1.027 0 0 0 .324-.21l3-3a1.116 1.116 0 0 0 .217-.33.991.991 0 0 0 .076-.38v-3.17a3 3 0 0 0 1.957-3.34 3 3 0 0 0-5.914 0 3 3 0 0 0 1.957 3.34v2.76l-2.414 2.41H223v-1.59l3.707-3.7a1.116 1.116 0 0 0 .217-.33.991.991 0 0 0 .076-.38v-3.59l1.707-1.7a1.116 1.116 0 0 0 .217-.33.991.991 0 0 0 .076-.38v-4h-2v3.59l-1.707 1.7a1.116 1.116 0 0 0-.217.33.991.991 0 0 0-.076.38v3.59l-2 2V1781a4 4 0 0 0-4-4h-28a4 4 0 0 0-4 4v19.59l-2-2V1795a.991.991 0 0 0-.076-.38 1.116 1.116 0 0 0-.217-.33l-1.707-1.7V1789h-2v4a.991.991 0 0 0 .076.38 1.116 1.116 0 0 0 .217.33l1.707 1.7v3.59a.991.991 0 0 0 .076.38 1.116 1.116 0 0 0 .217.33l3.707 3.7v1.59h-5.586l-2.414-2.41v-2.76a3 3 0 0 0 1.957-3.34 3 3 0 0 0-5.914 0 3 3 0 0 0 1.957 3.34v3.17a.991.991 0 0 0 .076.38 1.116 1.116 0 0 0 .217.33l3 3a1.027 1.027 0 0 0 .324.21 1.016 1.016 0 0 0 .383.08h6v2h-8v2h8v2h-4a1.016 1.016 0 0 0-.383.08 1.027 1.027 0 0 0-.324.21l-2.707 2.71H176v2h4a1.016 1.016 0 0 0 .383-.08 1.027 1.027 0 0 0 .324-.21l2.707-2.71H187v1.59l-3.707 3.7a1.116 1.116 0 0 0-.217.33.991.991 0 0 0-.076.38v4h2v-3.59l2-2V1833a4 4 0 0 0 4 4h28a4 4 0 0 0 4-4v-13.59l2 2v3.59h2v-4a.991.991 0 0 0-.076-.38 1.116 1.116 0 0 0-.217-.33l-3.707-3.7V1815h3.586l2.707 2.71a1.027 1.027 0 0 0 .324.21 1.016 1.016 0 0 0 .383.08h4v-2h-3.586zM232 1796a1 1 0 0 1 .556.17.971.971 0 0 1 .368.45 1 1 0 0 1 .057.58.992.992 0 0 1-.786.78.957.957 0 0 1-.578-.06.973.973 0 0 1-.448-.36 1.022 1.022 0 0 1-.169-.56 1 1 0 0 1 .293-.71 1.031 1.031 0 0 1 .707-.29zm-54 0a1 1 0 0 1 .556.17.971.971 0 0 1 .368.45 1 1 0 0 1 .057.58.992.992 0 0 1-.786.78.957.957 0 0 1-.578-.06.973.973 0 0 1-.448-.36 1.022 1.022 0 0 1-.169-.56 1 1 0 0 1 .293-.71 1.031 1.031 0 0 1 .707-.29zm43 37a2.008 2.008 0 0 1-2 2h-21v-4a.991.991 0 0 0-.076-.38 1.116 1.116 0 0 0-.217-.33l-2.707-2.7V1824h-2v4a.991.991 0 0 0 .076.38 1.116 1.116 0 0 0 .217.33l2.707 2.7v3.59h-5a2.008 2.008 0 0 1-2-2v-52a2.008 2.008 0 0 1 2-2h24v4.59l-2.707 2.7a1.116 1.116 0 0 0-.217.33.991.991 0 0 0-.076.38v7h2v-6.59l2.707-2.7a1.116 1.116 0 0 0 .217-.33.991.991 0 0 0 .076-.38v-5h2a2.008 2.008 0 0 1 2 2z" transform="translate(4 1512)" style="fill:#53c092"/>
        <path data-name="Path 369" d="M216 1790h2v2h-2z" transform="translate(4 1512)" style="fill:#53c092"/>
        <path data-name="Path 370" d="M193 1820h2v2h-2z" transform="translate(4 1512)" style="fill:#53c092"/>
    </g>
</svg>
