<?xml version="1.0" encoding="utf-8"?>
<!-- Generator: Adobe Illustrator 26.5.0, SVG Export Plug-In . SVG Version: 6.00 Build 0)  -->
<svg version="1.1" id="Layer_1" xmlns="http://www.w3.org/2000/svg" xmlns:xlink="http://www.w3.org/1999/xlink" x="0px" y="0px"
	 viewBox="0 0 106 112" style="enable-background:new 0 0 106 112;" xml:space="preserve">
<style type="text/css">
	.st0{fill:#88BDE2;}
	.st1{fill:#284180;}
	.st2{fill:#3978B3;}
	.st3{fill:#E22029;}
	.st4{fill:#FDC56A;}
	.st5{fill:#ED8B46;}
	.st6{fill:none;stroke:#E22029;stroke-width:5;stroke-miterlimit:10;}
	.st7{fill:none;stroke:#E22029;stroke-width:6;stroke-miterlimit:10;}
	.st8{fill:none;stroke:#E22029;stroke-width:6;stroke-linecap:round;stroke-linejoin:round;stroke-miterlimit:10;}
	.st9{fill:none;stroke:#231F20;stroke-width:6;stroke-linecap:round;stroke-linejoin:round;stroke-miterlimit:10;}
	.st10{fill:#231F20;}
	.st11{fill:none;stroke:#191919;stroke-width:5;stroke-linecap:round;stroke-linejoin:round;stroke-miterlimit:10;}
	.st12{fill:none;stroke:#E22029;stroke-width:5;stroke-linecap:round;stroke-linejoin:round;stroke-miterlimit:10;}
	.st13{fill:#5B6160;}
	.st14{fill:#EC1C2A;}
	.st15{fill:none;stroke:#515050;stroke-width:16.3394;stroke-linecap:round;stroke-linejoin:round;stroke-miterlimit:10;}
	.st16{fill:none;stroke:#EC1C2A;stroke-width:16.3394;stroke-linecap:round;stroke-linejoin:round;stroke-miterlimit:10;}
	.st17{fill:none;stroke:#5E5F60;stroke-width:5;stroke-linecap:round;stroke-linejoin:round;stroke-miterlimit:10;}
	.st18{fill:none;stroke:#EC1C2A;stroke-width:5;stroke-linecap:round;stroke-linejoin:round;stroke-miterlimit:10;}
	.st19{fill:none;stroke:#E22029;stroke-width:2;stroke-linecap:round;stroke-linejoin:round;stroke-miterlimit:10;}
	.st20{fill:none;stroke:#515050;stroke-width:2;stroke-linecap:round;stroke-linejoin:round;stroke-miterlimit:10;}
	.st21{fill:none;stroke:#E22029;stroke-width:17;stroke-linecap:round;stroke-linejoin:round;stroke-miterlimit:10;}
	.st22{fill:none;stroke:#515050;stroke-width:16.8258;stroke-linecap:round;stroke-linejoin:round;stroke-miterlimit:10;}
	.st23{fill:#EC1B32;}
	.st24{fill:#5E5F60;}
	.st25{fill:none;stroke:#636463;stroke-width:0.25;stroke-miterlimit:10;}
	.st26{fill:none;stroke:#E62027;stroke-width:0.5;stroke-miterlimit:10;stroke-dasharray:3,5;}
	.st27{fill:none;stroke:#515050;stroke-width:17;stroke-miterlimit:10;}
	.st28{fill:none;stroke:#E61E27;stroke-width:17;stroke-miterlimit:10;}
	.st29{fill:none;stroke:#636463;stroke-width:0.2474;stroke-miterlimit:10;}
	.st30{fill:none;stroke:#E62027;stroke-width:0.4949;stroke-miterlimit:10;stroke-dasharray:2.9693,4.9488;}
	.st31{fill:none;stroke:#515050;stroke-width:16.8258;stroke-miterlimit:10;}
	.st32{fill:none;stroke:#E61E27;stroke-width:16.8258;stroke-miterlimit:10;}
	.st33{fill:none;stroke:#EC1C2A;stroke-width:2;stroke-linecap:round;stroke-linejoin:round;stroke-miterlimit:10;}
	.st34{fill:#515050;}
</style>
<g>
	<g>
		<path class="st23" d="M42.6,33.3l6,6.3l0,0c0.3,0.4,0.8,0.6,1.3,0.6l0-1.2l-0.1,1.2c0.1,0,0.1,0,0.2,0c0.3,0,0.5-0.1,0.7-0.2
			c0.2-0.1,0.4-0.2,0.5-0.4l-0.8-0.8l0.5,1.1l0,0c0.1-0.1,0.2-0.1,0.3-0.2l13-12.3c0.5-0.4,0.5-1.2,0-1.6c-0.4-0.5-1.2-0.5-1.6,0
			L49.6,38l0.8,0.8l-0.5-1.1l0,0c-0.1,0.1-0.2,0.1-0.3,0.2l0.3,0.3L49.7,38c-0.1,0-0.1,0-0.1,0.1l0.3,0.3L49.7,38l0.2,0.5v-0.6
			c-0.1,0-0.2,0-0.2,0l0.2,0.5v-0.6v0.6l0.1-0.6c0,0,0,0-0.1,0v0.6l0.1-0.6l-0.1,0l0,0.5l0.3-0.3c-0.1-0.1-0.2-0.1-0.3-0.1l0,0.5
			l0.3-0.3l0,0l-6-6.3c-0.4-0.5-1.2-0.5-1.6,0C42.2,32.1,42.1,32.9,42.6,33.3L42.6,33.3z"/>
		<path class="st34" d="M33.6,56.5c-1.5-0.9-2.4-2.4-2.9-4.6c-0.3-1.4-0.7-2.2-1.2-2.6c-1.3,2-4.3,6.3-6,8.8
			c-0.6,0.9-0.1,1.3,0.9,1.2c1.8-0.2,3.6-0.4,5.5-0.5c0.6,1.7,1.2,3.4,1.8,5.1c0.1,0.3,0.4,0.8,0.7,0.8c0.3,0,0.7-0.3,0.9-0.6
			c1.5-2.2,4.5-6.5,4.5-6.5l-0.1-0.1C36.1,57.4,34.8,57.2,33.6,56.5"/>
		<path class="st34" d="M76.4,49.1c-0.7,0.4-1.1,1-1.2,2.4c-0.2,2.2-1,3.8-2.5,4.9c-1.2,0.9-2.7,1.2-4.4,1.1
			c0.5,0.7,3.1,4.4,4.4,6.4c0.2,0.3,0.6,0.6,0.9,0.6c0.3,0,0.6-0.5,0.7-0.8c0.6-1.7,1.2-3.3,1.8-5.1c1.9,0.2,3.7,0.4,5.5,0.5
			c1,0.1,1.4-0.3,0.9-1.2C80.8,55.4,77.7,51,76.4,49.1"/>
		<path class="st34" d="M58.3,57.3c-0.4,0-0.9-0.1-1.4-0.3c-0.5-0.2-1.1-0.5-1.7-0.9l0,0c-0.3-0.2-0.7-0.4-1.1-0.6
			c-0.4-0.1-0.8-0.2-1.2-0.2c-0.4,0-0.8,0.1-1.2,0.2c-0.4,0.1-0.7,0.3-1.1,0.6l0,0c-0.4,0.3-0.9,0.6-1.5,0.8
			c-0.5,0.2-1.1,0.4-1.6,0.4c-0.2,0-0.5,0-0.7-0.1l0,0c-0.3-0.1-0.6-0.2-0.9-0.4c-0.4-0.2-0.8-0.6-1.1-1c-0.3-0.4-0.6-0.8-0.8-1.2
			l0,0c-0.2-0.3-0.3-0.5-0.5-0.8c-0.1-0.2-0.3-0.3-0.5-0.5c-0.3-0.2-0.6-0.4-0.9-0.5c-0.3-0.1-0.7-0.2-1-0.2c-0.4,0-0.7,0.1-1.1,0.1
			c-0.6,0.1-1.1,0.2-1.5,0.2c-0.4,0-0.8,0-1.1-0.1c-0.3-0.1-0.6-0.2-0.9-0.4c-0.4-0.3-0.8-0.6-1.1-1.1c-0.3-0.5-0.5-1.1-0.7-1.9
			c-0.1-0.6-0.3-1.1-0.5-1.6c-0.1-0.4-0.3-0.7-0.5-1c-0.3-0.5-0.8-0.9-1.3-1.1c-0.5-0.3-1-0.4-1.6-0.6c-0.6-0.1-1-0.3-1.4-0.6
			c-0.4-0.3-0.7-0.7-1-1.1c-0.3-0.5-0.4-1-0.4-1.6c0-0.5,0.1-1.1,0.4-1.7l0,0c0.2-0.4,0.3-0.7,0.4-1c0.1-0.3,0.1-0.7,0.1-1
			c0-0.3,0-0.6-0.1-0.9c-0.1-0.4-0.3-0.8-0.6-1.2c-0.3-0.4-0.6-0.7-1-1c-0.7-0.6-1.1-1.1-1.3-1.6c-0.2-0.5-0.3-0.9-0.3-1.3l0,0l0,0
			c0-0.5,0.1-1,0.4-1.5c0.3-0.5,0.7-1,1.3-1.5l0,0c0.5-0.4,0.8-0.8,1.1-1.3c0.1-0.2,0.3-0.5,0.3-0.8c0.1-0.3,0.1-0.6,0.1-0.8
			c0-0.3,0-0.6-0.1-1c-0.1-0.3-0.2-0.6-0.3-1l0,0c-0.3-0.8-0.4-1.4-0.4-1.9c0-0.6,0.2-1.1,0.4-1.5l0,0c0.2-0.3,0.4-0.7,0.9-1
			c0.5-0.4,1.1-0.7,2.1-0.9c0.4-0.1,0.9-0.2,1.2-0.4c0.3-0.1,0.6-0.3,0.8-0.5c0.2-0.2,0.3-0.4,0.5-0.6c0.2-0.3,0.3-0.7,0.4-1
			c0.1-0.3,0.1-0.7,0.1-1.1v0c0-0.9,0.3-1.6,0.5-2.1c0.3-0.5,0.6-0.8,0.9-1c0.2-0.2,0.5-0.4,0.9-0.5c0.4-0.1,0.9-0.2,1.6-0.2
			c0.4,0,0.8,0,1.3,0.1l0,0c0.4,0.1,0.7,0.1,1,0.1c0.3,0,0.7,0,1-0.1c0.2-0.1,0.5-0.2,0.7-0.3c0.3-0.2,0.6-0.4,0.9-0.7
			c0.2-0.3,0.5-0.6,0.7-0.9l0,0c0.4-0.7,0.9-1.2,1.3-1.6c0.5-0.4,0.9-0.6,1.5-0.7c0.2,0,0.4-0.1,0.7-0.1c0.4,0,0.9,0.1,1.4,0.3
			c0.5,0.2,1,0.5,1.6,0.9c0.4,0.3,0.7,0.5,1.1,0.6c0.4,0.2,0.8,0.2,1.2,0.2c0.4,0,0.8-0.1,1.2-0.2c0.4-0.1,0.7-0.3,1.1-0.6l0,0
			c0.4-0.3,0.9-0.6,1.4-0.8C57,7.4,57.5,7.3,58,7.3c0.2,0,0.5,0,0.7,0.1l0,0c0.3,0.1,0.6,0.2,0.9,0.4c0.4,0.3,0.8,0.6,1.1,1
			c0.3,0.4,0.6,0.8,0.9,1.2l0,0c0.2,0.3,0.3,0.5,0.5,0.7c0.1,0.2,0.3,0.3,0.5,0.5c0.3,0.2,0.6,0.4,0.9,0.5c0.3,0.1,0.7,0.2,1,0.2
			c0.4,0,0.7-0.1,1.1-0.1l0,0c0.5-0.1,1-0.2,1.4-0.2c0.6,0,1,0.1,1.4,0.2c0.4,0.1,0.7,0.3,0.9,0.5c0.3,0.2,0.7,0.6,0.9,1.1
			c0.3,0.5,0.5,1.2,0.6,2.2c0,0.5,0.1,0.9,0.2,1.3c0.1,0.3,0.2,0.6,0.4,0.9c0.1,0.2,0.3,0.4,0.5,0.6c0.3,0.2,0.6,0.4,0.9,0.6
			c0.3,0.1,0.7,0.2,1,0.3h0c0.5,0.1,1,0.3,1.3,0.5c0.6,0.3,1,0.7,1.4,1.2c0.3,0.5,0.6,1.2,0.7,1.9l0,0l0,0l0,0l0,0
			c0,0.1,0,0.2,0,0.3c0,0.1,0,0.2,0,0.3c0,0.1-0.1,0.2-0.1,0.3l0,0c-0.2,0.4-0.3,0.7-0.4,1.1c-0.1,0.4-0.2,0.7-0.2,1.1
			c0,0.3,0,0.7,0.1,1c0.1,0.5,0.4,1,0.7,1.4c0.3,0.4,0.7,0.8,1.2,1.2c0.4,0.4,0.8,0.8,1,1.2c0.2,0.4,0.3,0.9,0.3,1.3v0h0.6l-0.6,0v0
			h0.6l-0.6,0v0c0,0.5-0.1,1-0.4,1.5c-0.3,0.5-0.7,1-1.2,1.4l0,0c-0.5,0.4-0.9,0.8-1.3,1.4c-0.2,0.3-0.3,0.5-0.4,0.8
			c-0.1,0.3-0.1,0.6-0.1,0.9c0,0.4,0.1,0.7,0.1,1c0.1,0.3,0.2,0.7,0.4,1l0,0c0.3,0.6,0.4,1.2,0.4,1.7c0,0.5-0.1,1-0.3,1.4
			c-0.2,0.5-0.6,0.9-1.1,1.2c-0.5,0.3-1.1,0.6-1.8,0.8l0,0c-0.5,0.1-0.9,0.3-1.3,0.5c-0.3,0.2-0.6,0.4-0.8,0.6
			c-0.4,0.4-0.6,0.8-0.8,1.3c-0.2,0.5-0.3,1-0.3,1.6c-0.1,0.8-0.2,1.4-0.5,1.9c-0.3,0.5-0.6,0.9-1,1.2l0,0c-0.3,0.2-0.6,0.4-1,0.5
			c-0.4,0.1-0.8,0.2-1.3,0.2c-0.4,0-0.8,0-1.3-0.1l0,0c-0.4-0.1-0.7-0.1-1.1-0.1c-0.3,0-0.6,0-1,0.1c-0.2,0.1-0.5,0.2-0.7,0.3
			c-0.3,0.2-0.6,0.4-0.9,0.7c-0.2,0.3-0.5,0.6-0.6,0.9l0,0c-0.4,0.7-0.9,1.3-1.4,1.7c-0.5,0.4-0.9,0.6-1.4,0.7l0,0
			C58.8,57.3,58.5,57.3,58.3,57.3c-0.6,0-1.2,0.5-1.2,1.2s0.5,1.2,1.2,1.2c0.4,0,0.8,0,1.2-0.1l0,0c0.9-0.2,1.7-0.6,2.4-1.2
			c0.7-0.6,1.3-1.4,1.9-2.3l0,0c0.1-0.2,0.2-0.4,0.3-0.5c0.1-0.2,0.2-0.2,0.3-0.3c0.1,0,0.1,0,0.2-0.1c0.1,0,0.2,0,0.3,0
			c0.2,0,0.4,0,0.7,0.1l0,0c0.6,0.1,1.1,0.2,1.7,0.2c0.7,0,1.4-0.1,2-0.3c0.6-0.2,1.2-0.5,1.7-0.9l0,0c0.7-0.5,1.3-1.2,1.7-2
			c0.4-0.8,0.6-1.7,0.7-2.7c0-0.4,0.1-0.7,0.2-0.9c0.1-0.2,0.1-0.3,0.2-0.4c0.1-0.1,0.2-0.2,0.4-0.3c0.2-0.1,0.4-0.2,0.8-0.3l0,0
			c1-0.2,1.8-0.6,2.6-1.2c0.7-0.5,1.4-1.2,1.8-2c0.4-0.8,0.6-1.6,0.6-2.5c0-0.9-0.2-1.8-0.6-2.7l0,0C79.1,39,79,38.8,79,38.6
			c0-0.2-0.1-0.3-0.1-0.4c0-0.1,0-0.2,0-0.2c0-0.1,0.1-0.2,0.2-0.4c0.1-0.2,0.3-0.4,0.6-0.6l0,0c0.8-0.6,1.4-1.3,1.8-2.1
			c0.4-0.8,0.7-1.7,0.7-2.6h-0.6l0.6,0v0h-0.6l0.6,0l0,0v0c0-0.8-0.2-1.6-0.6-2.4c-0.4-0.7-0.9-1.4-1.6-1.9c-0.5-0.4-0.8-0.7-1-1
			c-0.1-0.1-0.1-0.3-0.2-0.4c0-0.1-0.1-0.2-0.1-0.4c0-0.1,0-0.3,0.1-0.5c0.1-0.2,0.1-0.4,0.3-0.7l0,0c0.1-0.3,0.2-0.6,0.3-0.8
			c0-0.2,0.1-0.4,0.1-0.6c0-0.1,0-0.1,0-0.1l0,0l0-0.2c0-0.1,0-0.2,0-0.3l0-0.2l0,0c-0.1-0.7-0.3-1.4-0.6-2c-0.4-0.9-1-1.7-1.8-2.4
			c-0.8-0.6-1.8-1-2.8-1.3l0,0c-0.3-0.1-0.5-0.1-0.7-0.2c-0.1-0.1-0.2-0.1-0.2-0.1c0,0-0.1-0.1-0.1-0.1c0-0.1-0.1-0.2-0.1-0.3
			c0-0.2-0.1-0.4-0.1-0.7c-0.1-1.3-0.4-2.4-0.8-3.2c-0.5-0.8-1.1-1.4-1.6-1.8c-0.4-0.3-0.9-0.6-1.5-0.8c-0.6-0.2-1.4-0.4-2.2-0.4
			c-0.6,0-1.2,0.1-1.9,0.2l0,0c-0.3,0.1-0.5,0.1-0.6,0.1c-0.1,0-0.2,0-0.2,0c0,0-0.1,0-0.1,0c-0.1,0-0.1-0.1-0.2-0.2
			c-0.1-0.1-0.2-0.3-0.3-0.5l0,0c-0.4-0.6-0.9-1.4-1.6-2.1c-0.4-0.3-0.8-0.7-1.2-1c-0.5-0.3-1-0.5-1.6-0.6l0,0
			C58.8,5,58.4,4.9,58,4.9c-0.9,0-1.8,0.2-2.5,0.5c-0.7,0.3-1.3,0.7-1.8,1l0,0c-0.3,0.2-0.5,0.3-0.7,0.3c-0.2,0.1-0.3,0.1-0.4,0.1
			c-0.1,0-0.2,0-0.4-0.1c-0.2-0.1-0.4-0.2-0.6-0.4c-0.7-0.5-1.4-0.9-2.1-1.2c-0.7-0.3-1.5-0.4-2.2-0.4c-0.4,0-0.8,0-1.1,0.1
			c-0.9,0.2-1.7,0.6-2.4,1.2c-0.7,0.6-1.3,1.3-1.9,2.3l0,0c-0.1,0.2-0.2,0.4-0.3,0.5C41.5,9,41.4,9,41.3,9.1
			c-0.1,0.1-0.2,0.1-0.2,0.1c-0.1,0-0.2,0-0.4,0c-0.2,0-0.4,0-0.6-0.1l0,0C39.5,9.1,38.9,9,38.4,9c-0.9,0-1.7,0.1-2.3,0.4
			c-0.7,0.2-1.2,0.5-1.6,0.8c-0.5,0.4-1.1,1-1.5,1.8c-0.4,0.8-0.8,1.8-0.8,3.1v0c0,0.3-0.1,0.6-0.1,0.7c0,0.1-0.1,0.2-0.1,0.2
			c0,0-0.1,0.1-0.1,0.1c-0.1,0.1-0.1,0.1-0.3,0.2c-0.2,0.1-0.4,0.1-0.6,0.2c-1.3,0.3-2.3,0.8-3,1.4c-0.7,0.6-1.2,1.2-1.5,1.8l0,0
			c-0.3,0.6-0.6,1.5-0.6,2.6c0,0.8,0.2,1.8,0.6,2.8l0,0c0.1,0.2,0.2,0.4,0.2,0.6c0,0.2,0.1,0.3,0.1,0.4c0,0.1,0,0.2,0,0.2
			c0,0.1-0.1,0.2-0.2,0.4c-0.1,0.2-0.3,0.3-0.5,0.6l0,0c-0.8,0.7-1.4,1.4-1.8,2.2c-0.4,0.8-0.7,1.7-0.7,2.6l0,0v0
			c0,0.6,0.1,1.4,0.5,2.2c0.4,0.8,1,1.7,1.9,2.4c0.4,0.3,0.6,0.6,0.7,0.8c0.1,0.1,0.1,0.2,0.1,0.3c0,0.1,0,0.2,0,0.3
			c0,0.1,0,0.3-0.1,0.5c-0.1,0.2-0.1,0.4-0.3,0.7l0,0c-0.4,0.8-0.6,1.7-0.6,2.6c0,1,0.2,1.9,0.7,2.7c0.4,0.7,1,1.4,1.6,1.9
			c0.7,0.5,1.5,0.8,2.3,1c0.4,0.1,0.7,0.2,0.9,0.3c0.2,0.1,0.3,0.2,0.4,0.3c0.2,0.1,0.3,0.3,0.4,0.7c0.1,0.3,0.3,0.8,0.4,1.3
			c0.2,1,0.5,1.9,1,2.6c0.5,0.8,1.1,1.4,1.8,1.8c0.5,0.3,1,0.5,1.5,0.6c0.5,0.1,1.1,0.2,1.7,0.2c0.7,0,1.3-0.1,2-0.2
			c0.3-0.1,0.4-0.1,0.6-0.1c0.1,0,0.2,0,0.2,0c0,0,0.1,0,0.1,0c0.1,0,0.1,0.1,0.2,0.2c0.1,0.1,0.2,0.3,0.4,0.5l0,0
			c0.4,0.6,0.9,1.4,1.6,2c0.4,0.3,0.8,0.7,1.2,0.9c0.5,0.3,1,0.5,1.6,0.6l0,0c0.4,0.1,0.8,0.1,1.2,0.1c0.9,0,1.8-0.2,2.5-0.5
			c0.7-0.3,1.4-0.7,1.8-1l0,0c0.2-0.2,0.4-0.3,0.6-0.3c0.2-0.1,0.3-0.1,0.4-0.1c0.1,0,0.2,0,0.4,0.1c0.1,0.1,0.3,0.2,0.6,0.3l0,0
			c0.7,0.5,1.5,0.9,2.2,1.2c0.7,0.3,1.5,0.4,2.2,0.4c0.6,0,1.2-0.5,1.2-1.2S59,57.3,58.3,57.3L58.3,57.3z"/>
	</g>
</g>
<g>
	<g>
		<path class="st34" d="M20.6,82.7c-0.1,0.1-0.1,0.2-0.2,0.2s-0.1,0.2-0.2,0.2c0.2-0.1,0.4-0.2,0.6-0.3s0.5-0.1,0.7-0.1
			c0.4,0,0.7,0.1,1,0.2c0.3,0.1,0.6,0.3,0.9,0.5c0.2,0.2,0.4,0.5,0.6,0.8s0.2,0.7,0.2,1.2c0,0.4-0.1,0.8-0.2,1.2
			c-0.2,0.4-0.4,0.7-0.6,1c-0.3,0.3-0.6,0.5-1,0.6c-0.4,0.2-0.8,0.2-1.3,0.2s-0.9-0.1-1.3-0.2c-0.4-0.2-0.7-0.4-1-0.6
			c-0.3-0.3-0.5-0.6-0.6-1c-0.1-0.4-0.2-0.8-0.2-1.3c0-0.4,0.1-0.8,0.3-1.3s0.4-0.9,0.8-1.4l2.2-3c0.1-0.1,0.2-0.2,0.3-0.2
			c0.1-0.1,0.3-0.1,0.4-0.1h1.2L20.6,82.7z M21.1,87.4c0.3,0,0.5,0,0.7-0.1c0.2-0.1,0.4-0.2,0.6-0.4s0.3-0.3,0.4-0.6
			c0.1-0.2,0.1-0.5,0.1-0.7c0-0.3,0-0.5-0.1-0.7s-0.2-0.4-0.4-0.6c-0.2-0.2-0.3-0.3-0.6-0.3c-0.2-0.1-0.5-0.1-0.7-0.1
			c-0.3,0-0.5,0-0.7,0.1s-0.4,0.2-0.6,0.4c-0.2,0.2-0.3,0.3-0.4,0.6c-0.1,0.2-0.1,0.4-0.1,0.7c0,0.3,0,0.5,0.1,0.7s0.2,0.4,0.3,0.6
			s0.3,0.3,0.5,0.4S20.8,87.4,21.1,87.4z"/>
		<path class="st34" d="M32,83.9c0,0.8-0.1,1.5-0.3,2.1c-0.2,0.6-0.4,1.1-0.7,1.4c-0.3,0.4-0.6,0.7-1,0.8c-0.4,0.2-0.8,0.3-1.3,0.3
			c-0.5,0-0.9-0.1-1.3-0.3c-0.4-0.2-0.8-0.5-1-0.8C26,87,25.8,86.6,25.6,86c-0.2-0.6-0.3-1.3-0.3-2.1c0-0.8,0.1-1.5,0.3-2.1
			c0.2-0.6,0.4-1.1,0.7-1.4c0.3-0.4,0.6-0.7,1-0.8c0.4-0.2,0.8-0.3,1.3-0.3c0.5,0,0.9,0.1,1.3,0.3c0.4,0.2,0.8,0.5,1,0.8
			c0.3,0.4,0.5,0.9,0.7,1.4C31.9,82.4,32,83.1,32,83.9z M30.6,83.9c0-0.7-0.1-1.2-0.2-1.7c-0.1-0.4-0.2-0.8-0.4-1.1
			c-0.2-0.3-0.4-0.5-0.6-0.6c-0.2-0.1-0.5-0.2-0.7-0.2c-0.3,0-0.5,0.1-0.7,0.2c-0.2,0.1-0.4,0.3-0.6,0.6c-0.2,0.3-0.3,0.6-0.4,1.1
			c-0.1,0.4-0.2,1-0.2,1.7s0.1,1.2,0.2,1.7c0.1,0.4,0.2,0.8,0.4,1.1c0.2,0.3,0.4,0.5,0.6,0.6c0.2,0.1,0.5,0.2,0.7,0.2
			c0.2,0,0.5-0.1,0.7-0.2c0.2-0.1,0.4-0.3,0.6-0.6s0.3-0.6,0.4-1.1C30.5,85.2,30.6,84.6,30.6,83.9z"/>
		<path class="st34" d="M39.5,83.9c0,0.8-0.1,1.5-0.3,2.1c-0.2,0.6-0.4,1.1-0.7,1.4c-0.3,0.4-0.6,0.7-1,0.8
			c-0.4,0.2-0.8,0.3-1.3,0.3c-0.5,0-0.9-0.1-1.3-0.3c-0.4-0.2-0.8-0.5-1-0.8c-0.3-0.4-0.5-0.9-0.7-1.4c-0.2-0.6-0.3-1.3-0.3-2.1
			c0-0.8,0.1-1.5,0.3-2.1c0.2-0.6,0.4-1.1,0.7-1.4c0.3-0.4,0.6-0.7,1-0.8c0.4-0.2,0.8-0.3,1.3-0.3c0.5,0,0.9,0.1,1.3,0.3
			c0.4,0.2,0.8,0.5,1,0.8c0.3,0.4,0.5,0.9,0.7,1.4C39.4,82.4,39.5,83.1,39.5,83.9z M38.1,83.9c0-0.7-0.1-1.2-0.2-1.7
			c-0.1-0.4-0.2-0.8-0.4-1.1c-0.2-0.3-0.4-0.5-0.6-0.6c-0.2-0.1-0.5-0.2-0.7-0.2c-0.3,0-0.5,0.1-0.7,0.2c-0.2,0.1-0.4,0.3-0.6,0.6
			c-0.2,0.3-0.3,0.6-0.4,1.1c-0.1,0.4-0.2,1-0.2,1.7s0.1,1.2,0.2,1.7c0.1,0.4,0.2,0.8,0.4,1.1c0.2,0.3,0.4,0.5,0.6,0.6
			c0.2,0.1,0.5,0.2,0.7,0.2c0.2,0,0.5-0.1,0.7-0.2c0.2-0.1,0.4-0.3,0.6-0.6s0.3-0.6,0.4-1.1C38.1,85.2,38.1,84.6,38.1,83.9z"/>
		<path class="st34" d="M46.8,84.7h-2.5v2.6h-1.1v-2.6h-2.5v-1h2.5v-2.6h1.1v2.6h2.5V84.7z"/>
		<path class="st34" d="M57.3,79.2v9.3h-0.8c-0.2,0-0.3-0.1-0.3-0.3L56,87.5c-0.3,0.3-0.6,0.6-0.9,0.8c-0.3,0.2-0.7,0.3-1.2,0.3
			c-0.4,0-0.7-0.1-1-0.2s-0.5-0.4-0.8-0.6c-0.2-0.3-0.4-0.6-0.5-1s-0.2-0.9-0.2-1.4c0-0.5,0.1-0.9,0.2-1.3s0.3-0.8,0.5-1.1
			c0.2-0.3,0.5-0.5,0.9-0.7c0.3-0.2,0.7-0.3,1.1-0.3c0.4,0,0.7,0.1,1,0.2c0.3,0.1,0.5,0.3,0.7,0.5v-3.4H57.3z M55.9,83.6
			c-0.2-0.2-0.4-0.4-0.6-0.5C55.1,83,54.8,83,54.6,83c-0.5,0-0.9,0.2-1.2,0.6c-0.3,0.4-0.4,1-0.4,1.7c0,0.4,0,0.7,0.1,1
			c0.1,0.3,0.2,0.5,0.3,0.7c0.1,0.2,0.3,0.3,0.5,0.4c0.2,0.1,0.4,0.1,0.6,0.1c0.3,0,0.6-0.1,0.9-0.2c0.2-0.1,0.5-0.4,0.7-0.6V83.6z"
			/>
		<path class="st34" d="M60.2,85.4c0,0.4,0.1,0.7,0.2,0.9c0.1,0.3,0.2,0.5,0.4,0.7s0.4,0.3,0.6,0.4c0.2,0.1,0.5,0.1,0.8,0.1
			c0.3,0,0.5,0,0.7-0.1c0.2-0.1,0.4-0.1,0.5-0.2c0.1-0.1,0.3-0.1,0.4-0.2s0.2-0.1,0.3-0.1c0.1,0,0.2,0,0.3,0.1l0.4,0.5
			c-0.2,0.2-0.3,0.3-0.5,0.5c-0.2,0.1-0.4,0.2-0.6,0.3c-0.2,0.1-0.5,0.1-0.7,0.2c-0.2,0-0.5,0.1-0.7,0.1c-0.4,0-0.9-0.1-1.2-0.2
			s-0.7-0.4-1-0.7s-0.5-0.6-0.7-1.1c-0.2-0.4-0.2-0.9-0.2-1.5c0-0.4,0.1-0.9,0.2-1.2c0.1-0.4,0.3-0.7,0.6-1s0.6-0.5,1-0.7
			c0.4-0.2,0.8-0.2,1.3-0.2c0.4,0,0.8,0.1,1.1,0.2s0.6,0.3,0.9,0.6c0.2,0.2,0.4,0.5,0.6,0.9c0.1,0.4,0.2,0.8,0.2,1.2
			c0,0.2,0,0.3-0.1,0.4s-0.1,0.1-0.3,0.1H60.2z M63.4,84.5c0-0.2,0-0.4-0.1-0.6c-0.1-0.2-0.2-0.4-0.3-0.5c-0.1-0.1-0.3-0.3-0.5-0.3
			c-0.2-0.1-0.4-0.1-0.6-0.1c-0.5,0-0.9,0.1-1.2,0.4s-0.5,0.7-0.5,1.2H63.4z"/>
		<path class="st34" d="M69.9,83.2c0,0.1-0.1,0.1-0.1,0.1s-0.1,0-0.2,0c-0.1,0-0.1,0-0.2-0.1c-0.1,0-0.2-0.1-0.3-0.1
			s-0.2-0.1-0.4-0.1c-0.2,0-0.3-0.1-0.5-0.1c-0.2,0-0.3,0-0.5,0.1c-0.1,0-0.3,0.1-0.3,0.2s-0.2,0.2-0.2,0.3c0,0.1-0.1,0.2-0.1,0.3
			c0,0.2,0,0.3,0.1,0.4c0.1,0.1,0.2,0.2,0.4,0.3c0.2,0.1,0.3,0.1,0.5,0.2s0.4,0.1,0.6,0.2c0.2,0.1,0.4,0.1,0.6,0.2s0.4,0.2,0.5,0.3
			c0.2,0.1,0.3,0.3,0.4,0.5c0.1,0.2,0.1,0.4,0.1,0.7c0,0.3-0.1,0.6-0.2,0.8c-0.1,0.3-0.3,0.5-0.5,0.7c-0.2,0.2-0.5,0.3-0.8,0.4
			s-0.7,0.2-1.1,0.2c-0.2,0-0.4,0-0.6-0.1c-0.2,0-0.4-0.1-0.6-0.2c-0.2-0.1-0.4-0.2-0.5-0.2c-0.2-0.1-0.3-0.2-0.4-0.3l0.3-0.5
			c0-0.1,0.1-0.1,0.1-0.1c0.1,0,0.1-0.1,0.2-0.1c0.1,0,0.2,0,0.3,0.1s0.2,0.1,0.3,0.2c0.1,0.1,0.3,0.1,0.4,0.2
			c0.2,0.1,0.4,0.1,0.6,0.1c0.2,0,0.4,0,0.5-0.1s0.3-0.1,0.4-0.2c0.1-0.1,0.2-0.2,0.2-0.3c0-0.1,0.1-0.2,0.1-0.3
			c0-0.2,0-0.3-0.1-0.4s-0.2-0.2-0.4-0.3c-0.2-0.1-0.3-0.1-0.5-0.2c-0.2-0.1-0.4-0.1-0.6-0.2c-0.2-0.1-0.4-0.1-0.6-0.2
			c-0.2-0.1-0.4-0.2-0.5-0.3c-0.2-0.1-0.3-0.3-0.4-0.5c-0.1-0.2-0.1-0.4-0.1-0.7c0-0.3,0.1-0.5,0.2-0.7c0.1-0.2,0.3-0.4,0.5-0.6
			c0.2-0.2,0.4-0.3,0.7-0.4s0.6-0.2,1-0.2c0.4,0,0.8,0.1,1.2,0.2c0.4,0.1,0.6,0.3,0.9,0.6L69.9,83.2z"/>
		<path class="st34" d="M73.5,80.1c0,0.1,0,0.2-0.1,0.3c0,0.1-0.1,0.2-0.2,0.3c-0.1,0.1-0.2,0.1-0.3,0.2c-0.1,0-0.2,0.1-0.4,0.1
			c-0.1,0-0.2,0-0.3-0.1c-0.1,0-0.2-0.1-0.3-0.2c-0.1-0.1-0.1-0.2-0.2-0.3c0-0.1-0.1-0.2-0.1-0.3c0-0.1,0-0.2,0.1-0.4
			c0-0.1,0.1-0.2,0.2-0.3c0.1-0.1,0.2-0.1,0.3-0.2c0.1,0,0.2-0.1,0.3-0.1c0.1,0,0.2,0,0.4,0.1c0.1,0,0.2,0.1,0.3,0.2
			s0.1,0.2,0.2,0.3C73.4,79.9,73.5,80,73.5,80.1z M73.2,82v6.4h-1.4V82H73.2z"/>
		<path class="st34" d="M80.7,82.3v0.5c0,0.2-0.1,0.3-0.3,0.3l-0.6,0.1c0.1,0.2,0.2,0.5,0.2,0.8c0,0.3-0.1,0.6-0.2,0.9
			c-0.1,0.3-0.3,0.5-0.5,0.7c-0.2,0.2-0.5,0.3-0.8,0.4c-0.3,0.1-0.6,0.1-1,0.1c-0.1,0-0.3,0-0.4,0c-0.1,0-0.3,0-0.4-0.1
			c-0.1,0.1-0.2,0.1-0.3,0.2c-0.1,0.1-0.1,0.2-0.1,0.2c0,0.1,0.1,0.2,0.2,0.3c0.1,0.1,0.3,0.1,0.5,0.1c0.2,0,0.4,0,0.7,0.1
			c0.3,0,0.5,0,0.8,0c0.3,0,0.5,0.1,0.8,0.1c0.3,0,0.5,0.1,0.7,0.2c0.2,0.1,0.4,0.3,0.5,0.4s0.2,0.4,0.2,0.7c0,0.3-0.1,0.5-0.2,0.8
			c-0.1,0.3-0.3,0.5-0.6,0.7s-0.6,0.4-1,0.5c-0.4,0.1-0.8,0.2-1.3,0.2c-0.5,0-0.9,0-1.2-0.1c-0.4-0.1-0.6-0.2-0.9-0.4
			c-0.2-0.2-0.4-0.3-0.5-0.5c-0.1-0.2-0.2-0.4-0.2-0.6c0-0.3,0.1-0.6,0.3-0.8s0.4-0.4,0.8-0.5c-0.2-0.1-0.3-0.2-0.4-0.3
			c-0.1-0.1-0.2-0.3-0.2-0.6c0-0.2,0.1-0.4,0.2-0.6c0.1-0.2,0.3-0.4,0.6-0.5c-0.3-0.2-0.6-0.4-0.8-0.7c-0.2-0.3-0.3-0.6-0.3-1
			c0-0.3,0.1-0.6,0.2-0.9c0.1-0.3,0.3-0.5,0.5-0.7s0.5-0.3,0.8-0.4c0.3-0.1,0.6-0.1,1-0.1c0.6,0,1,0.1,1.4,0.3H80.7z M79.4,88.8
			c0-0.1,0-0.3-0.1-0.3c-0.1-0.1-0.2-0.2-0.3-0.2c-0.1,0-0.3-0.1-0.5-0.1s-0.4,0-0.6,0c-0.2,0-0.4,0-0.6,0c-0.2,0-0.4,0-0.6-0.1
			c-0.2,0.1-0.4,0.2-0.5,0.4c-0.1,0.1-0.2,0.3-0.2,0.5c0,0.1,0,0.2,0.1,0.4c0.1,0.1,0.2,0.2,0.3,0.3c0.1,0.1,0.3,0.1,0.5,0.2
			c0.2,0,0.5,0.1,0.8,0.1c0.6,0,1-0.1,1.3-0.3C79.2,89.3,79.4,89.1,79.4,88.8z M77.5,85.2c0.4,0,0.7-0.1,0.9-0.3
			c0.2-0.2,0.3-0.5,0.3-0.8c0-0.4-0.1-0.6-0.3-0.8c-0.2-0.2-0.5-0.3-0.9-0.3c-0.4,0-0.7,0.1-0.9,0.3c-0.2,0.2-0.3,0.5-0.3,0.8
			c0,0.2,0,0.3,0.1,0.5c0.1,0.1,0.1,0.3,0.2,0.4s0.2,0.2,0.4,0.2C77.1,85.2,77.3,85.2,77.5,85.2z"/>
		<path class="st34" d="M83.3,82.9c0.1-0.1,0.3-0.3,0.4-0.4c0.1-0.1,0.3-0.2,0.5-0.3c0.2-0.1,0.3-0.1,0.5-0.2c0.2,0,0.4-0.1,0.6-0.1
			c0.4,0,0.7,0.1,0.9,0.2c0.3,0.1,0.5,0.3,0.7,0.5c0.2,0.2,0.3,0.5,0.4,0.8c0.1,0.3,0.1,0.6,0.1,1v4.1h-1.3v-4.1
			c0-0.4-0.1-0.8-0.3-1c-0.2-0.2-0.5-0.4-0.9-0.4c-0.3,0-0.6,0.1-0.8,0.2c-0.3,0.1-0.5,0.3-0.7,0.6v4.7H82V82h0.8
			c0.2,0,0.3,0.1,0.4,0.3L83.3,82.9z"/>
		<path class="st34" d="M33.1,101.4c0,0.4,0.1,0.7,0.2,0.9c0.1,0.3,0.2,0.5,0.4,0.7s0.4,0.3,0.6,0.4c0.2,0.1,0.5,0.1,0.8,0.1
			c0.3,0,0.5,0,0.7-0.1c0.2-0.1,0.4-0.1,0.5-0.2c0.1-0.1,0.3-0.1,0.4-0.2s0.2-0.1,0.3-0.1c0.1,0,0.2,0,0.3,0.1l0.4,0.5
			c-0.2,0.2-0.3,0.3-0.5,0.5s-0.4,0.2-0.6,0.3c-0.2,0.1-0.5,0.1-0.7,0.2c-0.2,0-0.5,0.1-0.7,0.1c-0.4,0-0.9-0.1-1.2-0.2
			s-0.7-0.4-1-0.7s-0.5-0.6-0.7-1.1c-0.2-0.4-0.2-0.9-0.2-1.5c0-0.4,0.1-0.9,0.2-1.2c0.1-0.4,0.3-0.7,0.6-1s0.6-0.5,1-0.7
			C34,98,34.4,98,34.9,98c0.4,0,0.8,0.1,1.1,0.2s0.6,0.3,0.9,0.6c0.2,0.2,0.4,0.5,0.6,0.9c0.1,0.4,0.2,0.8,0.2,1.2
			c0,0.2,0,0.3-0.1,0.4s-0.1,0.1-0.3,0.1H33.1z M36.4,100.5c0-0.2,0-0.4-0.1-0.6c-0.1-0.2-0.2-0.4-0.3-0.5c-0.1-0.1-0.3-0.3-0.5-0.3
			c-0.2-0.1-0.4-0.1-0.6-0.1c-0.5,0-0.9,0.1-1.2,0.4s-0.5,0.7-0.5,1.2H36.4z"/>
		<path class="st34" d="M44.6,104.5h-1.3c-0.1,0-0.2,0-0.2-0.1c-0.1-0.1-0.1-0.1-0.1-0.2l-1.5-2.4c0,0.1-0.1,0.3-0.2,0.4l-1.3,2
			c0,0.1-0.1,0.1-0.2,0.2c-0.1,0.1-0.1,0.1-0.2,0.1h-1.2l2.2-3.3l-2.1-3.1h1.3c0.1,0,0.2,0,0.2,0c0,0,0.1,0.1,0.1,0.1l1.5,2.3
			c0-0.1,0.1-0.3,0.2-0.4l1.2-1.8c0.1-0.1,0.2-0.2,0.3-0.2h1.2l-2.1,3L44.6,104.5z"/>
		<path class="st34" d="M47,99c0.3-0.3,0.6-0.6,0.9-0.8s0.7-0.3,1.2-0.3c0.4,0,0.7,0.1,1,0.2s0.5,0.4,0.8,0.6c0.2,0.3,0.4,0.6,0.5,1
			s0.2,0.9,0.2,1.4c0,0.5-0.1,0.9-0.2,1.3c-0.1,0.4-0.3,0.8-0.5,1.1c-0.2,0.3-0.5,0.5-0.9,0.7c-0.3,0.2-0.7,0.3-1.1,0.3
			c-0.4,0-0.7-0.1-1-0.2s-0.5-0.3-0.7-0.5v2.7h-1.4v-8.5h0.8c0.2,0,0.3,0.1,0.4,0.3L47,99z M47.1,102.9c0.2,0.2,0.4,0.4,0.6,0.5
			c0.2,0.1,0.5,0.1,0.7,0.1c0.5,0,0.9-0.2,1.2-0.6c0.3-0.4,0.4-1,0.4-1.7c0-0.4,0-0.7-0.1-1c-0.1-0.3-0.2-0.5-0.3-0.7
			s-0.3-0.3-0.5-0.4c-0.2-0.1-0.4-0.1-0.6-0.1c-0.3,0-0.6,0.1-0.9,0.2s-0.5,0.4-0.7,0.6V102.9z"/>
		<path class="st34" d="M54.1,101.4c0,0.4,0.1,0.7,0.2,0.9c0.1,0.3,0.2,0.5,0.4,0.7s0.4,0.3,0.6,0.4c0.2,0.1,0.5,0.1,0.8,0.1
			c0.3,0,0.5,0,0.7-0.1c0.2-0.1,0.4-0.1,0.5-0.2c0.1-0.1,0.3-0.1,0.4-0.2s0.2-0.1,0.3-0.1c0.1,0,0.2,0,0.3,0.1l0.4,0.5
			c-0.2,0.2-0.3,0.3-0.5,0.5s-0.4,0.2-0.6,0.3c-0.2,0.1-0.5,0.1-0.7,0.2c-0.2,0-0.5,0.1-0.7,0.1c-0.4,0-0.9-0.1-1.2-0.2
			s-0.7-0.4-1-0.7s-0.5-0.6-0.7-1.1c-0.2-0.4-0.2-0.9-0.2-1.5c0-0.4,0.1-0.9,0.2-1.2c0.1-0.4,0.3-0.7,0.6-1s0.6-0.5,1-0.7
			c0.4-0.2,0.8-0.2,1.3-0.2c0.4,0,0.8,0.1,1.1,0.2s0.6,0.3,0.9,0.6c0.2,0.2,0.4,0.5,0.6,0.9c0.1,0.4,0.2,0.8,0.2,1.2
			c0,0.2,0,0.3-0.1,0.4s-0.1,0.1-0.3,0.1H54.1z M57.3,100.5c0-0.2,0-0.4-0.1-0.6c-0.1-0.2-0.2-0.4-0.3-0.5c-0.1-0.1-0.3-0.3-0.5-0.3
			c-0.2-0.1-0.4-0.1-0.6-0.1c-0.5,0-0.9,0.1-1.2,0.4s-0.5,0.7-0.5,1.2H57.3z"/>
		<path class="st34" d="M61.3,99.2c0.2-0.4,0.4-0.7,0.7-1c0.3-0.2,0.6-0.3,1-0.3c0.1,0,0.3,0,0.4,0c0.1,0,0.2,0.1,0.3,0.1l-0.1,1
			c0,0.1,0,0.1-0.1,0.1c0,0-0.1,0-0.1,0c-0.1,0-0.2,0-0.3,0c-0.1,0-0.2,0-0.4,0c-0.2,0-0.4,0-0.5,0.1c-0.1,0.1-0.3,0.1-0.4,0.2
			s-0.2,0.2-0.3,0.4c-0.1,0.2-0.2,0.3-0.2,0.5v4H60v-6.4h0.8c0.1,0,0.2,0,0.3,0.1c0.1,0.1,0.1,0.1,0.1,0.3L61.3,99.2z"/>
		<path class="st34" d="M67,104.6c-0.5,0-0.9-0.1-1.2-0.4c-0.3-0.3-0.4-0.7-0.4-1.3v-3.7h-0.7c-0.1,0-0.1,0-0.2-0.1
			c-0.1,0-0.1-0.1-0.1-0.2v-0.5l1-0.2l0.3-1.9c0-0.1,0.1-0.1,0.1-0.2S65.9,96,66,96h0.7v2.1h1.8v1h-1.8v3.6c0,0.2,0.1,0.4,0.2,0.5
			s0.3,0.2,0.5,0.2c0.1,0,0.2,0,0.3,0c0.1,0,0.1-0.1,0.2-0.1c0.1,0,0.1-0.1,0.1-0.1c0,0,0.1,0,0.1,0c0.1,0,0.1,0,0.2,0.1l0.4,0.7
			c-0.2,0.2-0.5,0.3-0.7,0.4C67.5,104.5,67.3,104.6,67,104.6z"/>
		<path class="st34" d="M73.6,99.2c0,0.1-0.1,0.1-0.1,0.1s-0.1,0-0.2,0c-0.1,0-0.1,0-0.2-0.1c-0.1,0-0.2-0.1-0.3-0.1
			s-0.2-0.1-0.4-0.1C72.2,99,72,99,71.8,99c-0.2,0-0.3,0-0.5,0.1c-0.1,0-0.3,0.1-0.3,0.2s-0.2,0.2-0.2,0.3c0,0.1-0.1,0.2-0.1,0.3
			c0,0.2,0,0.3,0.1,0.4c0.1,0.1,0.2,0.2,0.4,0.3c0.2,0.1,0.3,0.1,0.5,0.2s0.4,0.1,0.6,0.2c0.2,0.1,0.4,0.1,0.6,0.2s0.4,0.2,0.5,0.3
			c0.2,0.1,0.3,0.3,0.4,0.5c0.1,0.2,0.1,0.4,0.1,0.7c0,0.3-0.1,0.6-0.2,0.8c-0.1,0.3-0.3,0.5-0.5,0.7c-0.2,0.2-0.5,0.3-0.8,0.4
			s-0.7,0.2-1.1,0.2c-0.2,0-0.4,0-0.6-0.1c-0.2,0-0.4-0.1-0.6-0.2c-0.2-0.1-0.4-0.2-0.5-0.2c-0.2-0.1-0.3-0.2-0.4-0.3l0.3-0.5
			c0-0.1,0.1-0.1,0.1-0.1c0.1,0,0.1-0.1,0.2-0.1c0.1,0,0.2,0,0.3,0.1s0.2,0.1,0.3,0.2c0.1,0.1,0.3,0.1,0.4,0.2
			c0.2,0.1,0.4,0.1,0.6,0.1c0.2,0,0.4,0,0.5-0.1s0.3-0.1,0.4-0.2c0.1-0.1,0.2-0.2,0.2-0.3c0-0.1,0.1-0.2,0.1-0.3
			c0-0.2,0-0.3-0.1-0.4s-0.2-0.2-0.4-0.3c-0.2-0.1-0.3-0.1-0.5-0.2c-0.2-0.1-0.4-0.1-0.6-0.2c-0.2-0.1-0.4-0.1-0.6-0.2
			c-0.2-0.1-0.4-0.2-0.5-0.3c-0.2-0.1-0.3-0.3-0.4-0.5c-0.1-0.2-0.1-0.4-0.1-0.7c0-0.3,0.1-0.5,0.2-0.7c0.1-0.2,0.3-0.4,0.5-0.6
			c0.2-0.2,0.4-0.3,0.7-0.4s0.6-0.2,1-0.2c0.4,0,0.8,0.1,1.2,0.2c0.4,0.1,0.6,0.3,0.9,0.6L73.6,99.2z"/>
	</g>
</g>
</svg>
