<?xml version="1.0" encoding="utf-8"?>
<!-- Generator: Adobe Illustrator 26.5.0, SVG Export Plug-In . SVG Version: 6.00 Build 0)  -->
<svg version="1.1" id="Layer_1" xmlns="http://www.w3.org/2000/svg" xmlns:xlink="http://www.w3.org/1999/xlink" x="0px" y="0px"
	 viewBox="0 0 106 112" style="enable-background:new 0 0 106 112;" xml:space="preserve">
<style type="text/css">
	.st0{fill:#88BDE2;}
	.st1{fill:#284180;}
	.st2{fill:#3978B3;}
	.st3{fill:#E22029;}
	.st4{fill:#FDC56A;}
	.st5{fill:#ED8B46;}
	.st6{fill:none;stroke:#E22029;stroke-width:5;stroke-miterlimit:10;}
	.st7{fill:none;stroke:#E22029;stroke-width:6;stroke-miterlimit:10;}
	.st8{fill:none;stroke:#E22029;stroke-width:6;stroke-linecap:round;stroke-linejoin:round;stroke-miterlimit:10;}
	.st9{fill:none;stroke:#231F20;stroke-width:6;stroke-linecap:round;stroke-linejoin:round;stroke-miterlimit:10;}
	.st10{fill:#231F20;}
	.st11{fill:none;stroke:#191919;stroke-width:5;stroke-linecap:round;stroke-linejoin:round;stroke-miterlimit:10;}
	.st12{fill:none;stroke:#E22029;stroke-width:5;stroke-linecap:round;stroke-linejoin:round;stroke-miterlimit:10;}
	.st13{fill:#5B6160;}
	.st14{fill:#EC1C2A;}
	.st15{fill:none;stroke:#515050;stroke-width:16.3394;stroke-linecap:round;stroke-linejoin:round;stroke-miterlimit:10;}
	.st16{fill:none;stroke:#EC1C2A;stroke-width:16.3394;stroke-linecap:round;stroke-linejoin:round;stroke-miterlimit:10;}
	.st17{fill:none;stroke:#5E5F60;stroke-width:5;stroke-linecap:round;stroke-linejoin:round;stroke-miterlimit:10;}
	.st18{fill:none;stroke:#EC1C2A;stroke-width:5;stroke-linecap:round;stroke-linejoin:round;stroke-miterlimit:10;}
	.st19{fill:none;stroke:#E22029;stroke-width:2;stroke-linecap:round;stroke-linejoin:round;stroke-miterlimit:10;}
	.st20{fill:none;stroke:#515050;stroke-width:2;stroke-linecap:round;stroke-linejoin:round;stroke-miterlimit:10;}
	.st21{fill:none;stroke:#E22029;stroke-width:17;stroke-linecap:round;stroke-linejoin:round;stroke-miterlimit:10;}
	.st22{fill:none;stroke:#515050;stroke-width:16.8258;stroke-linecap:round;stroke-linejoin:round;stroke-miterlimit:10;}
	.st23{fill:#EC1B32;}
	.st24{fill:#5E5F60;}
	.st25{fill:none;stroke:#636463;stroke-width:0.25;stroke-miterlimit:10;}
	.st26{fill:none;stroke:#E62027;stroke-width:0.5;stroke-miterlimit:10;stroke-dasharray:3,5;}
	.st27{fill:none;stroke:#515050;stroke-width:17;stroke-miterlimit:10;}
	.st28{fill:none;stroke:#E61E27;stroke-width:17;stroke-miterlimit:10;}
	.st29{fill:none;stroke:#636463;stroke-width:0.2474;stroke-miterlimit:10;}
	.st30{fill:none;stroke:#E62027;stroke-width:0.4949;stroke-miterlimit:10;stroke-dasharray:2.9693,4.9488;}
	.st31{fill:none;stroke:#515050;stroke-width:16.8258;stroke-miterlimit:10;}
	.st32{fill:none;stroke:#E61E27;stroke-width:16.8258;stroke-miterlimit:10;}
	.st33{fill:none;stroke:#EC1C2A;stroke-width:2;stroke-linecap:round;stroke-linejoin:round;stroke-miterlimit:10;}
	.st34{fill:#515050;}
</style>
<g>
	<g>
		<g>
			<g>
				<path class="st34" d="M15.6,87.2c0.1,0,0.3,0,0.3,0.1c0.1,0.1,0.1,0.2,0.1,0.3v0.8H10V88c0-0.1,0-0.2,0.1-0.3
					c0-0.1,0.1-0.2,0.2-0.3l2.8-2.8c0.2-0.2,0.5-0.5,0.6-0.7c0.2-0.2,0.3-0.4,0.5-0.7s0.2-0.4,0.3-0.7s0.1-0.5,0.1-0.7
					c0-0.2,0-0.4-0.1-0.6c-0.1-0.2-0.2-0.3-0.3-0.5s-0.3-0.2-0.5-0.3c-0.2-0.1-0.4-0.1-0.6-0.1c-0.2,0-0.4,0-0.6,0.1
					s-0.3,0.1-0.5,0.2c-0.1,0.1-0.2,0.2-0.3,0.4s-0.2,0.3-0.2,0.5c-0.1,0.2-0.1,0.3-0.2,0.3c-0.1,0.1-0.2,0.1-0.4,0l-0.7-0.1
					c0.1-0.4,0.2-0.8,0.4-1.1s0.4-0.6,0.7-0.8s0.6-0.4,0.9-0.5c0.3-0.1,0.7-0.2,1.1-0.2c0.4,0,0.8,0.1,1.1,0.2s0.6,0.3,0.9,0.5
					s0.4,0.5,0.6,0.8c0.1,0.3,0.2,0.7,0.2,1.1c0,0.3,0,0.6-0.1,0.9c-0.1,0.3-0.2,0.6-0.4,0.8c-0.2,0.3-0.4,0.5-0.6,0.8
					s-0.5,0.5-0.7,0.7l-2.2,2.2c0.2-0.1,0.4-0.1,0.5-0.1c0.2,0,0.4,0,0.5,0H15.6z"/>
				<path class="st34" d="M19.4,82.7c0.2,0,0.4-0.1,0.6-0.1c0.2,0,0.4,0,0.6,0c0.5,0,0.9,0.1,1.3,0.2c0.4,0.1,0.7,0.3,0.9,0.6
					c0.2,0.2,0.4,0.5,0.6,0.9c0.1,0.3,0.2,0.7,0.2,1.1c0,0.5-0.1,0.9-0.3,1.3c-0.2,0.4-0.4,0.7-0.7,1c-0.3,0.3-0.6,0.5-1.1,0.6
					c-0.4,0.2-0.8,0.2-1.3,0.2c-0.3,0-0.5,0-0.8-0.1c-0.2-0.1-0.5-0.1-0.7-0.2s-0.4-0.2-0.6-0.3c-0.2-0.1-0.3-0.3-0.5-0.4L18,87
					c0.1-0.1,0.2-0.2,0.4-0.2c0.1,0,0.2,0,0.3,0.1c0.1,0.1,0.2,0.1,0.4,0.2c0.1,0.1,0.3,0.2,0.5,0.2c0.2,0.1,0.4,0.1,0.7,0.1
					c0.3,0,0.6,0,0.8-0.1c0.2-0.1,0.4-0.2,0.6-0.4c0.2-0.2,0.3-0.4,0.4-0.6c0.1-0.2,0.1-0.5,0.1-0.8c0-0.3,0-0.5-0.1-0.7
					c-0.1-0.2-0.2-0.4-0.3-0.5c-0.2-0.1-0.3-0.3-0.6-0.3c-0.2-0.1-0.5-0.1-0.8-0.1c-0.2,0-0.4,0-0.7,0.1c-0.2,0-0.5,0.1-0.7,0.2
					l-0.8-0.2l0.7-4.3h4.4V80c0,0.2-0.1,0.3-0.2,0.5c-0.1,0.1-0.3,0.2-0.6,0.2h-2.6L19.4,82.7z"/>
				<path class="st34" d="M26,88.4c-0.1,0-0.2,0-0.3-0.1s-0.2-0.1-0.3-0.2c-0.1-0.1-0.1-0.2-0.2-0.3c0-0.1-0.1-0.2-0.1-0.3
					c0-0.1,0-0.2,0.1-0.3c0-0.1,0.1-0.2,0.2-0.3s0.2-0.1,0.3-0.2c0.1,0,0.2-0.1,0.3-0.1c0.1,0,0.3,0,0.4,0.1
					c0.1,0.1,0.2,0.1,0.3,0.2c0.1,0.1,0.1,0.2,0.2,0.3c0,0.1,0.1,0.2,0.1,0.4c0,0.2,0,0.4-0.1,0.6c-0.1,0.2-0.1,0.4-0.3,0.6
					c-0.1,0.2-0.2,0.4-0.4,0.6s-0.3,0.4-0.5,0.6L25.3,90c0,0-0.1-0.1-0.1-0.1s0-0.1,0-0.1c0-0.1,0-0.1,0.1-0.2c0,0,0.1-0.1,0.2-0.2
					c0.1-0.1,0.1-0.2,0.2-0.3s0.1-0.2,0.2-0.3S26,88.6,26,88.4L26,88.4z"/>
				<path class="st34" d="M34.6,83.9c0,0.8-0.1,1.5-0.3,2.1c-0.2,0.6-0.4,1.1-0.7,1.4c-0.3,0.4-0.6,0.7-1,0.8
					c-0.4,0.2-0.8,0.3-1.3,0.3s-0.9-0.1-1.3-0.3c-0.4-0.2-0.8-0.5-1-0.8c-0.3-0.4-0.5-0.9-0.7-1.4c-0.2-0.6-0.3-1.3-0.3-2.1
					c0-0.8,0.1-1.5,0.3-2.1c0.2-0.6,0.4-1.1,0.7-1.4s0.6-0.7,1-0.8c0.4-0.2,0.8-0.3,1.3-0.3s0.9,0.1,1.3,0.3c0.4,0.2,0.8,0.5,1,0.8
					c0.3,0.4,0.5,0.9,0.7,1.4S34.6,83.1,34.6,83.9z M33.2,83.9c0-0.7-0.1-1.2-0.2-1.7c-0.1-0.4-0.2-0.8-0.4-1.1
					c-0.2-0.3-0.4-0.5-0.6-0.6c-0.2-0.1-0.5-0.2-0.7-0.2c-0.3,0-0.5,0.1-0.7,0.2c-0.2,0.1-0.4,0.3-0.6,0.6c-0.2,0.3-0.3,0.6-0.4,1.1
					s-0.2,1-0.2,1.7s0.1,1.2,0.2,1.7c0.1,0.4,0.2,0.8,0.4,1.1s0.4,0.5,0.6,0.6c0.2,0.1,0.5,0.2,0.7,0.2c0.2,0,0.5-0.1,0.7-0.2
					c0.2-0.1,0.4-0.3,0.6-0.6s0.3-0.6,0.4-1.1C33.2,85.2,33.2,84.6,33.2,83.9z"/>
				<path class="st34" d="M42.1,83.9c0,0.8-0.1,1.5-0.3,2.1c-0.2,0.6-0.4,1.1-0.7,1.4c-0.3,0.4-0.6,0.7-1,0.8
					c-0.4,0.2-0.8,0.3-1.3,0.3s-0.9-0.1-1.3-0.3c-0.4-0.2-0.8-0.5-1-0.8C36.2,87,36,86.6,35.8,86c-0.2-0.6-0.3-1.3-0.3-2.1
					c0-0.8,0.1-1.5,0.3-2.1c0.2-0.6,0.4-1.1,0.7-1.4s0.6-0.7,1-0.8c0.4-0.2,0.8-0.3,1.3-0.3s0.9,0.1,1.3,0.3c0.4,0.2,0.8,0.5,1,0.8
					c0.3,0.4,0.5,0.9,0.7,1.4S42.1,83.1,42.1,83.9z M40.8,83.9c0-0.7-0.1-1.2-0.2-1.7c-0.1-0.4-0.2-0.8-0.4-1.1
					c-0.2-0.3-0.4-0.5-0.6-0.6c-0.2-0.1-0.5-0.2-0.7-0.2c-0.3,0-0.5,0.1-0.7,0.2c-0.2,0.1-0.4,0.3-0.6,0.6c-0.2,0.3-0.3,0.6-0.4,1.1
					s-0.2,1-0.2,1.7s0.1,1.2,0.2,1.7c0.1,0.4,0.2,0.8,0.4,1.1s0.4,0.5,0.6,0.6c0.2,0.1,0.5,0.2,0.7,0.2c0.2,0,0.5-0.1,0.7-0.2
					c0.2-0.1,0.4-0.3,0.6-0.6s0.3-0.6,0.4-1.1C40.7,85.2,40.8,84.6,40.8,83.9z"/>
				<path class="st34" d="M49.7,83.9c0,0.8-0.1,1.5-0.3,2.1c-0.2,0.6-0.4,1.1-0.7,1.4c-0.3,0.4-0.6,0.7-1,0.8
					c-0.4,0.2-0.8,0.3-1.3,0.3c-0.5,0-0.9-0.1-1.3-0.3c-0.4-0.2-0.8-0.5-1-0.8c-0.3-0.4-0.5-0.9-0.7-1.4c-0.2-0.6-0.3-1.3-0.3-2.1
					c0-0.8,0.1-1.5,0.3-2.1c0.2-0.6,0.4-1.1,0.7-1.4c0.3-0.4,0.6-0.7,1-0.8s0.8-0.3,1.3-0.3c0.5,0,0.9,0.1,1.3,0.3s0.8,0.5,1,0.8
					s0.5,0.9,0.7,1.4C49.6,82.4,49.7,83.1,49.7,83.9z M48.3,83.9c0-0.7-0.1-1.2-0.2-1.7s-0.2-0.8-0.4-1.1c-0.2-0.3-0.4-0.5-0.6-0.6
					c-0.2-0.1-0.5-0.2-0.7-0.2c-0.2,0-0.5,0.1-0.7,0.2c-0.2,0.1-0.4,0.3-0.6,0.6c-0.2,0.3-0.3,0.6-0.4,1.1c-0.1,0.4-0.2,1-0.2,1.7
					s0.1,1.2,0.2,1.7c0.1,0.4,0.2,0.8,0.4,1.1s0.4,0.5,0.6,0.6c0.2,0.1,0.5,0.2,0.7,0.2c0.2,0,0.5-0.1,0.7-0.2
					c0.2-0.1,0.4-0.3,0.6-0.6s0.3-0.6,0.4-1.1C48.2,85.2,48.3,84.6,48.3,83.9z"/>
				<path class="st34" d="M57,84.7h-2.5v2.6h-1.1v-2.6h-2.5v-1h2.5v-2.6h1.1v2.6H57V84.7z"/>
				<path class="st34" d="M63.4,82.8c0.3-0.3,0.6-0.5,0.9-0.6c0.3-0.2,0.7-0.2,1.1-0.2c0.4,0,0.7,0.1,0.9,0.2
					c0.3,0.1,0.5,0.3,0.7,0.5c0.2,0.2,0.3,0.5,0.4,0.8c0.1,0.3,0.1,0.6,0.1,1v4.1h-1.3v-4.1c0-0.4-0.1-0.8-0.3-1
					c-0.2-0.2-0.5-0.4-0.9-0.4c-0.3,0-0.6,0.1-0.8,0.2c-0.3,0.1-0.5,0.3-0.7,0.6v4.7H62v-9.3h1.4V82.8z"/>
				<path class="st34" d="M69.2,82.9c0.7-0.7,1.6-1,2.6-1c0.4,0,0.7,0.1,1,0.2c0.3,0.1,0.5,0.3,0.7,0.5c0.2,0.2,0.3,0.5,0.4,0.8
					c0.1,0.3,0.2,0.6,0.2,1v4.1h-0.6c-0.1,0-0.2,0-0.3-0.1c-0.1,0-0.1-0.1-0.2-0.2l-0.1-0.5c-0.2,0.1-0.3,0.3-0.5,0.4
					c-0.2,0.1-0.3,0.2-0.5,0.3c-0.2,0.1-0.4,0.1-0.5,0.2c-0.2,0-0.4,0.1-0.6,0.1c-0.3,0-0.5,0-0.7-0.1c-0.2-0.1-0.4-0.2-0.6-0.3
					s-0.3-0.3-0.4-0.5c-0.1-0.2-0.1-0.5-0.1-0.8c0-0.2,0.1-0.5,0.2-0.7s0.3-0.4,0.7-0.6s0.7-0.3,1.2-0.5c0.5-0.1,1.1-0.2,1.8-0.2
					v-0.4c0-0.5-0.1-0.8-0.3-1C72.2,83.1,72,83,71.6,83c-0.3,0-0.5,0-0.7,0.1c-0.2,0.1-0.3,0.1-0.5,0.2s-0.2,0.1-0.3,0.2
					c-0.1,0.1-0.2,0.1-0.3,0.1c-0.1,0-0.2,0-0.2-0.1c-0.1,0-0.1-0.1-0.2-0.2L69.2,82.9z M72.7,85.6c-0.5,0-0.9,0.1-1.2,0.1
					c-0.3,0.1-0.6,0.1-0.8,0.2c-0.2,0.1-0.4,0.2-0.4,0.3s-0.1,0.3-0.1,0.4c0,0.2,0,0.3,0.1,0.4c0,0.1,0.1,0.2,0.2,0.3
					c0.1,0.1,0.2,0.1,0.3,0.2s0.2,0,0.4,0c0.4,0,0.7-0.1,0.9-0.2c0.3-0.1,0.5-0.3,0.7-0.6V85.6z"/>
				<path class="st34" d="M77.2,83c0.3-0.3,0.6-0.6,0.9-0.8s0.7-0.3,1.2-0.3c0.4,0,0.7,0.1,1,0.2s0.5,0.4,0.8,0.6
					c0.2,0.3,0.4,0.6,0.5,1s0.2,0.9,0.2,1.4c0,0.5-0.1,0.9-0.2,1.3c-0.1,0.4-0.3,0.8-0.5,1.1c-0.2,0.3-0.5,0.5-0.9,0.7
					c-0.3,0.2-0.7,0.3-1.1,0.3c-0.4,0-0.7-0.1-1-0.2s-0.5-0.3-0.7-0.5v2.7h-1.4V82h0.8c0.2,0,0.3,0.1,0.4,0.3L77.2,83z M77.2,86.8
					c0.2,0.2,0.4,0.4,0.6,0.5c0.2,0.1,0.5,0.1,0.7,0.1c0.5,0,0.9-0.2,1.2-0.6c0.3-0.4,0.4-1,0.4-1.7c0-0.4,0-0.7-0.1-1
					c-0.1-0.3-0.2-0.5-0.3-0.7s-0.3-0.3-0.5-0.4C79.2,83,79,83,78.8,83c-0.3,0-0.6,0.1-0.9,0.2s-0.5,0.4-0.7,0.6V86.8z"/>
				<path class="st34" d="M84.5,83c0.3-0.3,0.6-0.6,0.9-0.8s0.7-0.3,1.2-0.3c0.4,0,0.7,0.1,1,0.2s0.5,0.4,0.8,0.6
					c0.2,0.3,0.4,0.6,0.5,1s0.2,0.9,0.2,1.4c0,0.5-0.1,0.9-0.2,1.3c-0.1,0.4-0.3,0.8-0.5,1.1c-0.2,0.3-0.5,0.5-0.9,0.7
					c-0.3,0.2-0.7,0.3-1.1,0.3c-0.4,0-0.7-0.1-1-0.2s-0.5-0.3-0.7-0.5v2.7h-1.4V82H84c0.2,0,0.3,0.1,0.4,0.3L84.5,83z M84.6,86.8
					c0.2,0.2,0.4,0.4,0.6,0.5c0.2,0.1,0.5,0.1,0.7,0.1c0.5,0,0.9-0.2,1.2-0.6c0.3-0.4,0.4-1,0.4-1.7c0-0.4,0-0.7-0.1-1
					c-0.1-0.3-0.2-0.5-0.3-0.7s-0.3-0.3-0.5-0.4C86.6,83,86.4,83,86.2,83c-0.3,0-0.6,0.1-0.9,0.2s-0.5,0.4-0.7,0.6V86.8z"/>
				<path class="st34" d="M96.2,82l-3.5,8.2c0,0.1-0.1,0.2-0.2,0.2c-0.1,0.1-0.2,0.1-0.3,0.1h-1l1.2-2.6l-2.6-6H91
					c0.1,0,0.2,0,0.3,0.1s0.1,0.1,0.1,0.2l1.5,3.6c0,0.1,0.1,0.2,0.1,0.3c0,0.1,0.1,0.2,0.1,0.3c0-0.1,0.1-0.2,0.1-0.3
					c0-0.1,0.1-0.2,0.1-0.3l1.5-3.6c0-0.1,0.1-0.1,0.1-0.2c0.1-0.1,0.1-0.1,0.2-0.1H96.2z"/>
				<path class="st34" d="M28.5,99.3c0,0.1-0.1,0.1-0.1,0.1c0,0-0.1,0-0.2,0s-0.1,0-0.2-0.1c-0.1,0-0.2-0.1-0.3-0.2
					c-0.1-0.1-0.2-0.1-0.4-0.2c-0.2,0-0.3-0.1-0.6-0.1c-0.3,0-0.5,0.1-0.8,0.2s-0.4,0.3-0.6,0.4c-0.1,0.2-0.3,0.4-0.3,0.7
					c-0.1,0.3-0.1,0.6-0.1,0.9c0,0.4,0,0.7,0.1,1c0.1,0.3,0.2,0.5,0.3,0.7c0.1,0.2,0.3,0.3,0.5,0.4c0.2,0.1,0.4,0.2,0.7,0.2
					c0.3,0,0.5,0,0.6-0.1c0.2-0.1,0.3-0.1,0.4-0.2c0.1-0.1,0.2-0.1,0.3-0.2c0.1-0.1,0.2-0.1,0.2-0.1c0.1,0,0.2,0,0.3,0.1l0.4,0.5
					c-0.2,0.2-0.3,0.3-0.5,0.5s-0.4,0.2-0.6,0.3c-0.2,0.1-0.4,0.1-0.7,0.2c-0.2,0-0.5,0.1-0.7,0.1c-0.4,0-0.8-0.1-1.1-0.2
					c-0.3-0.1-0.6-0.4-0.9-0.6c-0.3-0.3-0.5-0.6-0.6-1s-0.2-0.9-0.2-1.4c0-0.5,0.1-0.9,0.2-1.3c0.1-0.4,0.3-0.8,0.6-1
					c0.3-0.3,0.6-0.5,1-0.7c0.4-0.2,0.8-0.2,1.3-0.2c0.5,0,0.9,0.1,1.2,0.2s0.7,0.4,0.9,0.6L28.5,99.3z"/>
				<path class="st34" d="M35.6,98.1v6.4h-0.8c-0.2,0-0.3-0.1-0.3-0.3l-0.1-0.6c-0.1,0.1-0.3,0.3-0.4,0.4c-0.1,0.1-0.3,0.2-0.5,0.3
					c-0.2,0.1-0.3,0.1-0.5,0.2s-0.4,0.1-0.6,0.1c-0.4,0-0.7-0.1-0.9-0.2c-0.3-0.1-0.5-0.3-0.7-0.5c-0.2-0.2-0.3-0.5-0.4-0.8
					c-0.1-0.3-0.1-0.6-0.1-1v-4.1h1.4v4.1c0,0.4,0.1,0.8,0.3,1c0.2,0.2,0.5,0.4,0.9,0.4c0.3,0,0.6-0.1,0.8-0.2
					c0.3-0.1,0.5-0.3,0.7-0.6v-4.7H35.6z"/>
				<path class="st34" d="M41.3,99.2c0,0.1-0.1,0.1-0.1,0.1s-0.1,0-0.2,0c-0.1,0-0.1,0-0.2-0.1s-0.2-0.1-0.3-0.1s-0.2-0.1-0.4-0.1
					C40,99,39.8,99,39.6,99c-0.2,0-0.3,0-0.5,0.1c-0.1,0-0.3,0.1-0.3,0.2c-0.1,0.1-0.2,0.2-0.2,0.3c-0.1,0.1-0.1,0.2-0.1,0.3
					c0,0.2,0,0.3,0.1,0.4s0.2,0.2,0.4,0.3c0.2,0.1,0.3,0.1,0.5,0.2c0.2,0.1,0.4,0.1,0.6,0.2c0.2,0.1,0.4,0.1,0.6,0.2
					c0.2,0.1,0.4,0.2,0.5,0.3c0.2,0.1,0.3,0.3,0.4,0.5c0.1,0.2,0.1,0.4,0.1,0.7c0,0.3-0.1,0.6-0.2,0.8c-0.1,0.3-0.3,0.5-0.5,0.7
					c-0.2,0.2-0.5,0.3-0.8,0.4c-0.3,0.1-0.7,0.2-1.1,0.2c-0.2,0-0.4,0-0.6-0.1c-0.2,0-0.4-0.1-0.6-0.2c-0.2-0.1-0.4-0.2-0.5-0.2
					c-0.2-0.1-0.3-0.2-0.4-0.3l0.3-0.5c0-0.1,0.1-0.1,0.1-0.1c0.1,0,0.1-0.1,0.2-0.1c0.1,0,0.2,0,0.3,0.1s0.2,0.1,0.3,0.2
					c0.1,0.1,0.3,0.1,0.4,0.2s0.4,0.1,0.6,0.1c0.2,0,0.4,0,0.5-0.1s0.3-0.1,0.4-0.2c0.1-0.1,0.2-0.2,0.2-0.3c0-0.1,0.1-0.2,0.1-0.3
					c0-0.2,0-0.3-0.1-0.4c-0.1-0.1-0.2-0.2-0.4-0.3c-0.2-0.1-0.3-0.1-0.5-0.2c-0.2-0.1-0.4-0.1-0.6-0.2c-0.2-0.1-0.4-0.1-0.6-0.2
					c-0.2-0.1-0.4-0.2-0.5-0.3c-0.2-0.1-0.3-0.3-0.4-0.5c-0.1-0.2-0.1-0.4-0.1-0.7c0-0.3,0.1-0.5,0.2-0.7c0.1-0.2,0.3-0.4,0.5-0.6
					c0.2-0.2,0.4-0.3,0.7-0.4s0.6-0.2,1-0.2c0.4,0,0.8,0.1,1.2,0.2c0.4,0.1,0.6,0.3,0.9,0.6L41.3,99.2z"/>
				<path class="st34" d="M45.3,104.6c-0.5,0-0.9-0.1-1.2-0.4c-0.3-0.3-0.4-0.7-0.4-1.3v-3.7h-0.7c-0.1,0-0.1,0-0.2-0.1
					c-0.1,0-0.1-0.1-0.1-0.2v-0.5l1-0.2l0.3-1.9c0-0.1,0.1-0.1,0.1-0.2s0.1-0.1,0.2-0.1H45v2.1h1.8v1H45v3.6c0,0.2,0.1,0.4,0.2,0.5
					s0.3,0.2,0.5,0.2c0.1,0,0.2,0,0.3,0c0.1,0,0.1-0.1,0.2-0.1c0.1,0,0.1-0.1,0.1-0.1c0,0,0.1,0,0.1,0c0.1,0,0.1,0,0.2,0.1l0.4,0.7
					c-0.2,0.2-0.5,0.3-0.7,0.4C45.9,104.5,45.6,104.6,45.3,104.6z"/>
				<path class="st34" d="M50.8,98c0.5,0,0.9,0.1,1.3,0.2c0.4,0.2,0.7,0.4,1,0.7c0.3,0.3,0.5,0.6,0.6,1s0.2,0.9,0.2,1.4
					s-0.1,1-0.2,1.4s-0.4,0.8-0.6,1c-0.3,0.3-0.6,0.5-1,0.7c-0.4,0.2-0.8,0.2-1.3,0.2c-0.5,0-0.9-0.1-1.3-0.2
					c-0.4-0.2-0.7-0.4-1-0.7c-0.3-0.3-0.5-0.6-0.6-1s-0.2-0.9-0.2-1.4s0.1-1,0.2-1.4s0.4-0.8,0.6-1c0.3-0.3,0.6-0.5,1-0.7
					C49.9,98,50.4,98,50.8,98z M50.8,103.5c0.6,0,1-0.2,1.3-0.6c0.3-0.4,0.4-0.9,0.4-1.7c0-0.7-0.1-1.3-0.4-1.7S51.4,99,50.8,99
					c-0.6,0-1,0.2-1.3,0.6c-0.3,0.4-0.4,0.9-0.4,1.7c0,0.7,0.1,1.3,0.4,1.7C49.8,103.3,50.3,103.5,50.8,103.5z"/>
				<path class="st34" d="M55.5,104.5v-6.4h0.8c0.2,0,0.3,0.1,0.4,0.3l0.1,0.6c0.1-0.1,0.2-0.3,0.4-0.4c0.1-0.1,0.3-0.2,0.4-0.3
					c0.1-0.1,0.3-0.1,0.5-0.2c0.2,0,0.3-0.1,0.5-0.1c0.2,0,0.4,0,0.6,0.1s0.3,0.1,0.5,0.3c0.1,0.1,0.2,0.2,0.3,0.4
					c0.1,0.2,0.2,0.3,0.2,0.5c0.1-0.2,0.2-0.4,0.4-0.6s0.3-0.3,0.5-0.4c0.2-0.1,0.4-0.2,0.6-0.2c0.2,0,0.4-0.1,0.6-0.1
					c0.3,0,0.7,0.1,0.9,0.2c0.3,0.1,0.5,0.3,0.7,0.5c0.2,0.2,0.3,0.5,0.4,0.8c0.1,0.3,0.1,0.6,0.1,1v4.1H63v-4.1
					c0-0.5-0.1-0.8-0.3-1c-0.2-0.2-0.5-0.3-0.9-0.3c-0.2,0-0.3,0-0.5,0.1c-0.2,0.1-0.3,0.1-0.4,0.3c-0.1,0.1-0.2,0.3-0.3,0.4
					c-0.1,0.2-0.1,0.4-0.1,0.6v4.1h-1.3v-4.1c0-0.5-0.1-0.8-0.3-1c-0.2-0.2-0.5-0.3-0.8-0.3c-0.3,0-0.5,0.1-0.7,0.2
					c-0.2,0.1-0.4,0.3-0.6,0.5v4.7H55.5z"/>
				<path class="st34" d="M67.2,101.4c0,0.4,0.1,0.7,0.2,0.9c0.1,0.3,0.2,0.5,0.4,0.7s0.4,0.3,0.6,0.4c0.2,0.1,0.5,0.1,0.8,0.1
					c0.3,0,0.5,0,0.7-0.1c0.2-0.1,0.4-0.1,0.5-0.2c0.1-0.1,0.3-0.1,0.4-0.2s0.2-0.1,0.3-0.1c0.1,0,0.2,0,0.3,0.1l0.4,0.5
					c-0.2,0.2-0.3,0.3-0.5,0.5s-0.4,0.2-0.6,0.3c-0.2,0.1-0.5,0.1-0.7,0.2c-0.2,0-0.5,0.1-0.7,0.1c-0.4,0-0.9-0.1-1.2-0.2
					s-0.7-0.4-1-0.7s-0.5-0.6-0.7-1.1c-0.2-0.4-0.2-0.9-0.2-1.5c0-0.4,0.1-0.9,0.2-1.2c0.1-0.4,0.3-0.7,0.6-1s0.6-0.5,1-0.7
					C68,98,68.4,98,68.9,98c0.4,0,0.8,0.1,1.1,0.2s0.6,0.3,0.9,0.6c0.2,0.2,0.4,0.5,0.6,0.9c0.1,0.4,0.2,0.8,0.2,1.2
					c0,0.2,0,0.3-0.1,0.4s-0.1,0.1-0.3,0.1H67.2z M70.4,100.5c0-0.2,0-0.4-0.1-0.6c-0.1-0.2-0.2-0.4-0.3-0.5
					c-0.1-0.1-0.3-0.3-0.5-0.3c-0.2-0.1-0.4-0.1-0.6-0.1c-0.5,0-0.9,0.1-1.2,0.4s-0.5,0.7-0.5,1.2H70.4z"/>
				<path class="st34" d="M74.4,99.2c0.2-0.4,0.4-0.7,0.7-1c0.3-0.2,0.6-0.3,1-0.3c0.1,0,0.3,0,0.4,0c0.1,0,0.2,0.1,0.3,0.1l-0.1,1
					c0,0.1,0,0.1-0.1,0.1c0,0-0.1,0-0.1,0c-0.1,0-0.2,0-0.3,0c-0.1,0-0.2,0-0.4,0c-0.2,0-0.4,0-0.5,0.1c-0.1,0.1-0.3,0.1-0.4,0.2
					s-0.2,0.2-0.3,0.4c-0.1,0.2-0.2,0.3-0.2,0.5v4h-1.4v-6.4h0.8c0.1,0,0.2,0,0.3,0.1c0.1,0.1,0.1,0.1,0.1,0.3L74.4,99.2z"/>
				<path class="st34" d="M81.8,99.2c0,0.1-0.1,0.1-0.1,0.1s-0.1,0-0.2,0c-0.1,0-0.1,0-0.2-0.1c-0.1,0-0.2-0.1-0.3-0.1
					s-0.2-0.1-0.4-0.1c-0.2,0-0.3-0.1-0.5-0.1c-0.2,0-0.3,0-0.5,0.1c-0.1,0-0.3,0.1-0.3,0.2s-0.2,0.2-0.2,0.3c0,0.1-0.1,0.2-0.1,0.3
					c0,0.2,0,0.3,0.1,0.4c0.1,0.1,0.2,0.2,0.4,0.3c0.2,0.1,0.3,0.1,0.5,0.2s0.4,0.1,0.6,0.2c0.2,0.1,0.4,0.1,0.6,0.2
					s0.4,0.2,0.5,0.3c0.2,0.1,0.3,0.3,0.4,0.5c0.1,0.2,0.1,0.4,0.1,0.7c0,0.3-0.1,0.6-0.2,0.8c-0.1,0.3-0.3,0.5-0.5,0.7
					c-0.2,0.2-0.5,0.3-0.8,0.4s-0.7,0.2-1.1,0.2c-0.2,0-0.4,0-0.6-0.1c-0.2,0-0.4-0.1-0.6-0.2c-0.2-0.1-0.4-0.2-0.5-0.2
					c-0.2-0.1-0.3-0.2-0.4-0.3l0.3-0.5c0-0.1,0.1-0.1,0.1-0.1c0.1,0,0.1-0.1,0.2-0.1c0.1,0,0.2,0,0.3,0.1s0.2,0.1,0.3,0.2
					c0.1,0.1,0.3,0.1,0.4,0.2c0.2,0.1,0.4,0.1,0.6,0.1c0.2,0,0.4,0,0.5-0.1s0.3-0.1,0.4-0.2c0.1-0.1,0.2-0.2,0.2-0.3
					c0-0.1,0.1-0.2,0.1-0.3c0-0.2,0-0.3-0.1-0.4s-0.2-0.2-0.4-0.3c-0.2-0.1-0.3-0.1-0.5-0.2c-0.2-0.1-0.4-0.1-0.6-0.2
					c-0.2-0.1-0.4-0.1-0.6-0.2c-0.2-0.1-0.4-0.2-0.5-0.3c-0.2-0.1-0.3-0.3-0.4-0.5c-0.1-0.2-0.1-0.4-0.1-0.7c0-0.3,0.1-0.5,0.2-0.7
					c0.1-0.2,0.3-0.4,0.5-0.6c0.2-0.2,0.4-0.3,0.7-0.4s0.6-0.2,1-0.2c0.4,0,0.8,0.1,1.2,0.2c0.4,0.1,0.6,0.3,0.9,0.6L81.8,99.2z"/>
			</g>
		</g>
	</g>
</g>
<g>
	<path class="st23" d="M42.2,38L41.1,38c0,0.1,0,0.1,0,0.2c0,0.6,0.2,1.3,0.4,1.9c0.3,0.6,0.7,1.2,1.2,1.7c3.2,3.2,6.4,6.4,9.6,9.6
		c0.1,0.1,0.3,0.3,0.5,0.4c0.1,0.1,0.2,0.1,0.4,0.2c0.1,0,0.3,0.1,0.4,0.1c0.2,0,0.3,0,0.4-0.1c0.2-0.1,0.4-0.2,0.5-0.3
		c0.1-0.1,0.3-0.2,0.4-0.3c3.2-3.2,6.4-6.3,9.5-9.6c0.6-0.6,1-1.3,1.3-2c0.3-0.7,0.4-1.5,0.4-2.3c0-0.8-0.2-1.6-0.5-2.4
		c-0.3-0.8-0.8-1.5-1.4-2c-1.2-1.2-2.8-1.8-4.3-1.8c-1.6,0-3.1,0.6-4.3,1.8c-0.7,0.6-1.4,1.3-2,2c-0.1,0.1-0.2,0.2-0.2,0.2l0,0
		l0.1,0.2v-0.3c-0.1,0-0.1,0-0.1,0l0.1,0.2v-0.3v0.3l0.1-0.3c0,0-0.1,0-0.1,0v0.3l0.1-0.3l-0.1,0.2l0.1-0.2l0,0l-0.1,0.2l0.1-0.2
		l0,0.1l0-0.1l0,0l0,0.1l0-0.1c0,0-0.1-0.1-0.2-0.2c-0.7-0.7-1.4-1.4-2.1-2.1c-0.6-0.5-1.2-1-1.9-1.2c-0.7-0.3-1.4-0.4-2.2-0.4
		c-0.8,0-1.7,0.2-2.5,0.6c-0.6,0.3-1.1,0.6-1.6,1c-0.7,0.6-1.2,1.3-1.6,2.2c-0.4,0.9-0.5,1.9-0.5,3L42.2,38L41.1,38L42.2,38l1.1,0
		c0-0.6,0.1-1.1,0.2-1.6c0.2-0.7,0.4-1.2,0.8-1.6c0.4-0.4,0.8-0.7,1.5-1c0.6-0.3,1.2-0.4,1.7-0.4c0.5,0,0.9,0.1,1.3,0.3
		c0.4,0.2,0.9,0.5,1.3,0.9c0.7,0.6,1.3,1.3,2,1.9c0.2,0.2,0.4,0.4,0.7,0.6c0.1,0.1,0.3,0.2,0.5,0.2c0.2,0.1,0.3,0.1,0.5,0.1
		c0.2,0,0.3,0,0.5-0.1c0.2-0.1,0.5-0.2,0.6-0.3c0.2-0.1,0.4-0.3,0.5-0.5c0.6-0.6,1.2-1.3,1.9-1.9c0.8-0.8,1.8-1.2,2.8-1.2
		c1,0,2,0.4,2.8,1.2c0.4,0.4,0.7,0.8,0.9,1.3c0.2,0.5,0.3,1,0.3,1.5c0,0.5-0.1,1-0.3,1.5c-0.2,0.5-0.5,0.9-0.8,1.3
		c-3.1,3.2-6.3,6.3-9.5,9.5c0,0-0.1,0.1-0.1,0.1l0,0l0,0l0.2,0.3l-0.1-0.3c-0.1,0-0.1,0-0.1,0l0.2,0.3l-0.1-0.3l0.2,0.6v-0.6
		c-0.1,0-0.2,0-0.2,0l0.2,0.6v-0.6v0.6l0.2-0.6c0,0-0.1,0-0.2,0v0.6l0.2-0.6l-0.1,0.4l0.2-0.3c0,0,0,0-0.1,0l-0.1,0.4l0.2-0.3l0,0
		l0,0l0,0l0,0l0,0c0,0,0,0-0.1-0.1c-3.2-3.2-6.4-6.4-9.6-9.6c-0.4-0.4-0.6-0.8-0.8-1.1c-0.2-0.4-0.2-0.7-0.2-1c0,0,0-0.1,0-0.1
		l0-0.1L42.2,38z"/>
	<path class="st34" d="M71.5,62.4H34.8c-0.3,0-0.7-0.1-1-0.2c-0.5-0.2-0.9-0.6-1.2-1.1c-0.3-0.5-0.5-1.1-0.5-1.7V39.2
		c0-0.5-0.1-0.9-0.3-1.2c-0.1-0.1-0.2-0.3-0.3-0.4c-0.1-0.1-0.1-0.1-0.2-0.2c-0.1,0-0.1-0.1-0.2-0.1c-0.1,0-0.2-0.1-0.4-0.1
		c0,0-1,0-2,0c-1,0-2,0-2,0c-0.3,0-0.7-0.1-1-0.2c-0.5-0.2-0.8-0.5-1.1-0.8c-0.1-0.2-0.2-0.3-0.3-0.5c-0.1-0.2-0.1-0.3-0.1-0.5
		c0-0.2,0-0.4,0.1-0.6c0.1-0.2,0.2-0.4,0.5-0.7L51.3,7.8C51.8,7.2,52.5,7,53.1,7c0.7,0,1.3,0.3,1.9,0.8l0,0
		c5.7,5.7,11.6,11.3,17.3,17c2.8,2.8,5.5,5.6,8.2,8.4c0.4,0.4,0.7,0.9,0.9,1.4c0.2,0.5,0.3,0.9,0.3,1.3c0,0.2,0,0.4-0.1,0.6
		c0,0.1-0.1,0.2-0.2,0.3c-0.1,0.1-0.3,0.3-0.6,0.4c-0.3,0.1-0.7,0.2-1.3,0.2h-4c-0.2,0-0.3,0-0.4,0.1c-0.1,0-0.1,0.1-0.2,0.1
		c-0.1,0.1-0.2,0.1-0.2,0.2c-0.1,0.1-0.2,0.2-0.3,0.3c-0.1,0.2-0.2,0.3-0.3,0.6c-0.1,0.2-0.1,0.5-0.1,0.7v20.2
		c0,0.9-0.3,1.7-0.8,2.2c-0.2,0.3-0.5,0.5-0.8,0.6C72.1,62.3,71.8,62.4,71.5,62.4c-0.6,0-1.1,0.5-1.1,1.1c0,0.6,0.5,1.1,1.1,1.1
		c0.7,0,1.3-0.2,1.9-0.4c0.9-0.4,1.6-1.1,2.1-1.9c0.5-0.8,0.8-1.8,0.8-2.9V39.2c0,0,0-0.1,0-0.1l0,0l-0.2-0.1l0.1,0.1
		c0,0,0-0.1,0-0.1l-0.2-0.1l0.1,0.1l-0.5-0.4l0.4,0.5c0.1,0,0.1-0.1,0.1-0.1l-0.5-0.4l0.4,0.5l-0.5-0.7l0.4,0.8
		c0.1,0,0.1-0.1,0.2-0.1l-0.5-0.7l0.4,0.8l-0.4-0.9l0.3,1c0.1,0,0.1,0,0.2-0.1l-0.4-0.9l0.3,1l-0.3-1v1c0.1,0,0.2,0,0.3,0l-0.3-1v1
		h4c0.7,0,1.3-0.1,1.8-0.3c0.4-0.1,0.8-0.3,1.1-0.5c0.5-0.3,0.9-0.8,1.1-1.3c0.2-0.5,0.3-1,0.3-1.6c0-0.7-0.2-1.5-0.5-2.2
		c-0.3-0.7-0.8-1.4-1.3-2c-2.7-2.9-5.5-5.7-8.3-8.5C68.1,17.5,62.2,12,56.5,6.3l0,0c-0.9-0.9-2.2-1.4-3.4-1.4
		c-1.2,0-2.5,0.5-3.4,1.4L23.3,32.6c-0.4,0.4-0.7,0.8-0.9,1.3c-0.2,0.5-0.3,1-0.3,1.4c0,0.6,0.2,1.1,0.4,1.6c0.4,0.7,1,1.4,1.7,1.8
		c0.7,0.4,1.6,0.7,2.5,0.7c0,0,4,0,4,0v-1l-0.3,1c0.1,0,0.2,0.1,0.3,0.1v-1l-0.3,1l0.3-0.9l-0.5,0.8c0,0,0.1,0,0.2,0.1l0.3-0.9
		l-0.5,0.8l0.4-0.7l-0.5,0.6c0,0,0.1,0.1,0.1,0.1l0.4-0.7l-0.5,0.6l0.3-0.4L30,39.2c0,0,0,0,0.1,0.1l0.3-0.4L30,39.2l0.2-0.1
		L30,39.2l0,0l0.2-0.1L30,39.2l0.1,0l-0.1,0l0,0l0.1,0l-0.1,0l0,0c0,0,0,0,0,0.1v20.2c0,1.4,0.5,2.7,1.4,3.6
		c0.4,0.5,0.9,0.9,1.5,1.1c0.6,0.3,1.2,0.4,1.9,0.4h36.7c0.6,0,1.1-0.5,1.1-1.1C72.5,62.9,72.1,62.4,71.5,62.4L71.5,62.4z"/>
</g>
</svg>
