<svg width="106" height="112" viewBox="0 0 106 112" fill="none" xmlns="http://www.w3.org/2000/svg">
<path d="M51.25 45.19L55.31 47.41L55.36 47.43C55.69 47.59 55.91 47.87 56 48.22C56.01 48.27 56.01 48.28 56.03 48.32L56.05 48.39L57.11 48.01L55.99 48.15L56.01 48.27L56.03 48.42V48.53V48.64L56.01 48.78L55.99 48.91L57.11 49.05L56.05 48.66L56.03 48.73C56.01 48.77 56.01 48.79 56 48.83C55.97 48.94 55.94 49.02 55.92 49.07L56.94 49.56L55.99 48.95C55.96 48.99 55.95 49.02 55.93 49.06C55.81 49.3 55.63 49.49 55.37 49.61L55.28 49.65C55.18 49.7 55.1 49.75 55.02 49.82L55.77 50.66L55.27 49.65L42.15 56.05C41.74 56.25 41.31 56.35 40.88 56.35C40.45 56.35 40.02 56.25 39.61 56.05L26.4 49.6C26.07 49.44 25.85 49.16 25.76 48.81C25.75 48.76 25.74 48.75 25.73 48.71L25.71 48.65L24.65 49.03L25.77 48.89L25.75 48.76V48.75L25.73 48.61V48.51V48.4L25.75 48.26L25.77 48.13L24.65 47.98L25.71 48.36L25.73 48.29C25.75 48.25 25.75 48.23 25.76 48.18C25.78 48.09 25.81 48.01 25.84 47.96L24.83 47.46L25.83 47.99L25.85 48C25.97 47.77 26.15 47.57 26.41 47.45H26.4L26.49 47.41L26.55 47.38L26 46.39L26.5 47.4L29.87 45.76C30.43 45.49 30.66 44.81 30.39 44.25C30.12 43.69 29.44 43.46 28.88 43.73L25.51 45.37L25.46 45.4L26.01 46.39L25.52 45.37L25.43 45.41H25.42C24.72 45.75 24.16 46.32 23.83 47L24.84 47.5L23.84 46.97L23.82 47C23.71 47.23 23.63 47.46 23.58 47.67L24.68 47.94L23.62 47.56L23.6 47.63C23.57 47.71 23.55 47.78 23.54 47.87L23.52 48L23.49 48.19C23.48 48.24 23.48 48.25 23.48 48.3L23.47 48.5V48.57L23.48 48.77C23.48 48.82 23.48 48.84 23.49 48.88L23.52 49.08V49.07L23.54 49.2C23.55 49.28 23.57 49.36 23.6 49.44L23.62 49.5L24.68 49.12L23.59 49.4C23.83 50.37 24.49 51.21 25.43 51.66L38.64 58.11C39.35 58.46 40.13 58.64 40.9 58.64C41.67 58.64 42.45 58.46 43.16 58.11L56.28 51.71C56.37 51.66 56.46 51.61 56.53 51.54L55.78 50.7L56.27 51.72L56.36 51.68C57.07 51.34 57.63 50.77 57.96 50.09L56.95 49.59L57.9 50.2C57.93 50.16 57.95 50.13 57.97 50.08C58.08 49.85 58.15 49.62 58.21 49.42L57.12 49.14L58.18 49.53L58.2 49.46C58.23 49.38 58.25 49.3 58.26 49.21L58.28 49.08L58.3 48.89L58.31 48.79L58.32 48.59V48.5L58.31 48.3L58.3 48.2L58.25 48L58.23 47.88C58.22 47.8 58.2 47.72 58.17 47.64L58.15 47.57L57.09 47.95L58.18 47.67C57.94 46.7 57.28 45.86 56.34 45.41L55.84 46.42L56.38 45.43L52.32 43.21C51.77 42.91 51.09 43.11 50.79 43.66C50.5 44.21 50.7 44.89 51.25 45.19Z" fill="#515050"/>
<path d="M47.36 55.35C50.21 58.16 53.76 61.07 58.21 63.94L59.06 64.49C59.44 64.74 59.93 64.73 60.31 64.47L61.15 63.9C71.24 57 76.78 50.53 79.79 45.27C82.8 40.02 83.27 35.99 83.26 34.05C83.26 33.57 83.23 33.21 83.21 33C83.14 32.38 82.58 31.93 81.96 32C81.34 32.07 80.89 32.63 80.96 33.25C80.97 33.38 81 33.65 81 34.05C81 35.64 80.63 39.24 77.82 44.15C75.01 49.06 69.74 55.29 59.87 62.04L59.65 62.19L59.43 62.05C55.1 59.25 51.68 56.45 48.94 53.75C48.5 53.31 47.78 53.32 47.34 53.76C46.91 54.2 46.92 54.91 47.36 55.35Z" fill="#515050"/>
<path d="M30.17 34.45L24.95 37C24.35 37.29 23.86 37.74 23.52 38.28C23.18 38.82 23 39.46 23 40.12C23 40.78 23.19 41.42 23.52 41.96C23.86 42.5 24.35 42.95 24.95 43.24L38.16 49.69C38.87 50.04 39.65 50.22 40.42 50.22C41.19 50.22 41.97 50.04 42.68 49.69L55.89 43.24C56.49 42.95 56.98 42.5 57.32 41.96C57.66 41.42 57.85 40.78 57.85 40.12C57.85 39.46 57.66 38.82 57.33 38.28C56.99 37.74 56.5 37.29 55.9 37L50.68 34.45C50.12 34.18 49.44 34.41 49.17 34.97C48.9 35.53 49.13 36.21 49.69 36.48L54.91 39.03C55.13 39.14 55.29 39.29 55.41 39.48C55.53 39.67 55.59 39.89 55.59 40.13C55.59 40.37 55.52 40.59 55.41 40.78C55.29 40.97 55.13 41.12 54.91 41.23L41.7 47.68C41.29 47.88 40.86 47.98 40.43 47.98C40 47.98 39.57 47.88 39.16 47.68L25.95 41.23C25.73 41.12 25.57 40.97 25.45 40.78C25.33 40.59 25.27 40.38 25.27 40.13C25.27 39.89 25.34 39.67 25.45 39.48C25.57 39.29 25.73 39.14 25.95 39.03L31.17 36.48C31.73 36.21 31.96 35.53 31.69 34.97C31.4 34.41 30.73 34.18 30.17 34.45Z" fill="#EC1B32"/>
<path d="M37.62 23.48L40.87 22.21L40.84 22.13V22.21L40.87 22.2L40.84 22.12V22.2V22.01L40.83 22.2H40.84V22.01L40.83 22.2H40.88C41.31 22.2 41.74 22.3 42.15 22.5L55.36 28.95C55.69 29.11 55.91 29.39 56 29.74C56.01 29.79 56.01 29.8 56.03 29.84L56.05 29.91L57.11 29.53L55.99 29.67L56.01 29.79L56.03 29.94V30.05V30.16L56.01 30.3L55.99 30.43L57.11 30.57L56.05 30.18L56.03 30.25C56.01 30.29 56.01 30.31 56 30.35C55.97 30.46 55.94 30.54 55.92 30.59L56.94 31.08L56.01 30.44C55.98 30.48 55.95 30.54 55.93 30.58C55.81 30.82 55.63 31.01 55.37 31.13L55.28 31.17C55.18 31.22 55.1 31.27 55.02 31.34L55.77 32.18L55.27 31.17L42.15 37.57C41.74 37.77 41.31 37.87 40.88 37.87C40.45 37.87 40.02 37.77 39.61 37.57L26.4 31.12C26.07 30.96 25.85 30.68 25.76 30.33C25.75 30.28 25.74 30.27 25.73 30.23L25.71 30.17L24.65 30.55L25.77 30.41L25.75 30.28V30.27L25.73 30.13V30.02V29.91L25.75 29.77L25.77 29.64L24.65 29.49L25.71 29.87L25.73 29.8C25.75 29.76 25.75 29.74 25.76 29.69C25.78 29.6 25.81 29.52 25.84 29.47C25.96 29.24 26.14 29.04 26.4 28.92H26.39L26.48 28.88L26.54 28.85L25.99 27.86L26.49 28.87L37.7 23.4C38.09 23.21 38.33 22.82 38.33 22.39V13.87H38.73C45.89 13.87 51 12.42 54.34 10.94C56.01 10.2 57.23 9.44998 58.06 8.86998C58.47 8.57998 58.78 8.33998 58.99 8.15998C59.1 8.06998 59.18 7.99998 59.24 7.93998C59.27 7.90998 59.29 7.88998 59.31 7.86998L59.33 7.84998L59.35 7.82998L59.64 7.53998L59.93 7.82998L59.94 7.83998C59.96 7.85998 60 7.89998 60.07 7.95998C60.55 8.39998 62.33 9.87998 65.67 11.24C69 12.61 73.89 13.86 80.55 13.86H80.94V33.08C80.94 33.7 81.45 34.21 82.07 34.21C82.69 34.21 83.2 33.7 83.2 33.08V12.73C83.2 12.43 83.08 12.14 82.87 11.93C82.66 11.72 82.37 11.6 82.07 11.6H80.55C73.69 11.6 68.91 10.22 65.86 8.86998C64.33 8.18998 63.24 7.51998 62.53 7.01998C62.18 6.76998 61.92 6.56998 61.75 6.42998C61.67 6.35998 61.61 6.30998 61.57 6.26998C61.55 6.24998 61.54 6.23998 61.53 6.22998L61.52 6.21998L61.36 6.38998L61.52 6.22998L61.36 6.39998L61.52 6.23998L60.9 6.86998L61.53 6.24998L61.52 6.23998L60.9 6.86998L61.53 6.24998L60.44 5.12998C60.23 4.90998 59.94 4.78998 59.63 4.78998C59.33 4.78998 59.03 4.90998 58.82 5.12998L57.72 6.23998L58.15 6.66998L57.72 6.22998L57.71 6.23998L58.14 6.66998L57.71 6.22998C57.7 6.23998 57.34 6.58998 56.61 7.08998C55.51 7.84998 53.56 8.96998 50.62 9.90998C47.68 10.85 43.75 11.6 38.69 11.6H37.17C36.87 11.6 36.58 11.72 36.37 11.93C36.16 12.14 36.04 12.43 36.04 12.73V21.68L25.46 26.84L25.41 26.87L25.96 27.86L25.47 26.84L25.38 26.88H25.37C24.67 27.22 24.11 27.79 23.78 28.47C23.67 28.7 23.59 28.93 23.54 29.14L24.64 29.41L23.58 29.03L23.56 29.1C23.53 29.18 23.51 29.25 23.5 29.34L23.48 29.47L23.45 29.66C23.44 29.71 23.44 29.72 23.44 29.77L23.43 29.97V30.04L23.44 30.24C23.44 30.29 23.44 30.31 23.45 30.35L23.48 30.55V30.54L23.5 30.67C23.51 30.75 23.53 30.83 23.56 30.91L23.58 30.97L24.64 30.59L23.55 30.87C23.79 31.84 24.45 32.68 25.39 33.13L38.6 39.58C39.31 39.93 40.09 40.11 40.86 40.11C41.63 40.11 42.41 39.93 43.12 39.58L56.24 33.18C56.33 33.13 56.42 33.08 56.49 33.01L55.74 32.17L56.23 33.19L56.32 33.15C57.03 32.81 57.59 32.24 57.92 31.56L56.91 31.06L57.84 31.7C57.88 31.65 57.9 31.61 57.93 31.55C58.04 31.32 58.11 31.09 58.17 30.89L57.08 30.61L58.14 31L58.16 30.93C58.19 30.85 58.21 30.77 58.22 30.68L58.24 30.55L58.26 30.36L58.27 30.26L58.28 30.06V29.97L58.27 29.77L58.26 29.67L58.24 29.47L58.22 29.35C58.21 29.27 58.19 29.19 58.16 29.11L58.14 29.04L57.08 29.42L58.17 29.14C57.93 28.17 57.27 27.33 56.33 26.88L43.12 20.43C42.41 20.08 41.63 19.9 40.86 19.9V21.03L40.91 19.9C40.88 19.9 40.85 19.9 40.82 19.9C40.55 19.9 40.28 19.95 40.03 20.05L36.78 21.32C36.2 21.55 35.91 22.2 36.14 22.78C36.39 23.42 37.04 23.71 37.62 23.48Z" fill="#515050"/>
<path d="M23.3123 79.8685V82.865H26.9718V84.0935H23.3123V88H21.7848V78.64H27.6218V79.8685H23.3123ZM30.1847 78.38V88H28.7872V78.38H30.1847ZM35.4521 85.101C34.9538 85.1183 34.5334 85.1595 34.1911 85.2245C33.8488 85.2852 33.5714 85.3653 33.3591 85.465C33.1468 85.5603 32.9929 85.6752 32.8976 85.8095C32.8066 85.9438 32.7611 86.0912 32.7611 86.2515C32.7611 86.4075 32.7849 86.5418 32.8326 86.6545C32.8846 86.7628 32.9539 86.8538 33.0406 86.9275C33.1316 86.9968 33.2356 87.0488 33.3526 87.0835C33.4739 87.1138 33.6061 87.129 33.7491 87.129C34.1131 87.129 34.4251 87.0618 34.6851 86.9275C34.9494 86.7888 35.2051 86.5895 35.4521 86.3295V85.101ZM31.7471 82.293C32.4968 81.5953 33.3894 81.2465 34.4251 81.2465C34.8064 81.2465 35.1444 81.3093 35.4391 81.435C35.7381 81.5563 35.9873 81.7297 36.1866 81.955C36.3903 82.1803 36.5441 82.449 36.6481 82.761C36.7564 83.0687 36.8106 83.411 36.8106 83.788V88H36.1866C36.0523 88 35.9504 87.9805 35.8811 87.9415C35.8118 87.8982 35.7533 87.8137 35.7056 87.688L35.5691 87.1485C35.4001 87.3002 35.2333 87.4367 35.0686 87.558C34.9039 87.675 34.7328 87.7747 34.5551 87.857C34.3818 87.9393 34.1933 88 33.9896 88.039C33.7903 88.0823 33.5693 88.104 33.3266 88.104C33.0579 88.104 32.8066 88.0672 32.5726 87.9935C32.3429 87.9198 32.1436 87.8093 31.9746 87.662C31.8056 87.5103 31.6713 87.324 31.5716 87.103C31.4763 86.882 31.4286 86.622 31.4286 86.323C31.4286 86.0673 31.4958 85.8182 31.6301 85.5755C31.7688 85.3328 31.9941 85.1162 32.3061 84.9255C32.6224 84.7305 33.0363 84.5702 33.5476 84.4445C34.0633 84.3188 34.6981 84.2473 35.4521 84.23V83.788C35.4521 83.3113 35.3503 82.956 35.1466 82.722C34.9429 82.488 34.6439 82.371 34.2496 82.371C33.9809 82.371 33.7556 82.4057 33.5736 82.475C33.3916 82.54 33.2334 82.6115 33.0991 82.6895C32.9648 82.7675 32.8456 82.8412 32.7416 82.9105C32.6376 82.9755 32.5271 83.008 32.4101 83.008C32.3148 83.008 32.2324 82.9842 32.1631 82.9365C32.0981 82.8845 32.0439 82.8217 32.0006 82.748L31.7471 82.293ZM40.4843 88.104C39.934 88.104 39.5093 87.9502 39.2103 87.6425C38.9157 87.3305 38.7683 86.8928 38.7683 86.3295V82.4685H38.0403C37.9623 82.4685 37.8952 82.4447 37.8388 82.397C37.7825 82.345 37.7543 82.2692 37.7543 82.1695V81.604L38.8268 81.448L39.1323 79.5305C39.154 79.4568 39.1908 79.3983 39.2428 79.355C39.2948 79.3073 39.3642 79.2835 39.4508 79.2835H40.1658V81.461H42.0053V82.4685H40.1658V86.232C40.1658 86.4703 40.2243 86.6523 40.3413 86.778C40.4583 86.9037 40.6143 86.9665 40.8093 86.9665C40.9177 86.9665 41.0108 86.9535 41.0888 86.9275C41.1668 86.8972 41.234 86.8668 41.2903 86.8365C41.3467 86.8018 41.3943 86.7715 41.4333 86.7455C41.4767 86.7152 41.5178 86.7 41.5568 86.7C41.6348 86.7 41.6977 86.7433 41.7453 86.83L42.1613 87.5125C41.9447 87.7032 41.689 87.8505 41.3943 87.9545C41.0997 88.0542 40.7963 88.104 40.4843 88.104ZM52.1682 86.9405V88H47.0657V86.9405H49.0157V81.0775C49.0157 80.8695 49.0222 80.6572 49.0352 80.4405L47.5337 81.708C47.4687 81.76 47.4015 81.7947 47.3322 81.812C47.2672 81.825 47.2043 81.825 47.1437 81.812C47.0873 81.799 47.0353 81.7795 46.9877 81.7535C46.9443 81.7232 46.9097 81.6907 46.8837 81.656L46.4482 81.045L49.2692 78.6205H50.4067V86.9405H52.1682ZM60.2162 83.32C60.2162 84.139 60.1274 84.8475 59.9497 85.4455C59.7764 86.0435 59.5359 86.5397 59.2282 86.934C58.9205 87.3283 58.5587 87.6208 58.1427 87.8115C57.7267 88.0022 57.2782 88.0975 56.7972 88.0975C56.3162 88.0975 55.8677 88.0022 55.4517 87.8115C55.0357 87.6208 54.6739 87.3283 54.3662 86.934C54.0629 86.5397 53.8245 86.0435 53.6512 85.4455C53.4779 84.8475 53.3912 84.139 53.3912 83.32C53.3912 82.501 53.4779 81.7925 53.6512 81.1945C53.8245 80.5922 54.0629 80.096 54.3662 79.706C54.6739 79.3117 55.0357 79.0192 55.4517 78.8285C55.8677 78.6335 56.3162 78.536 56.7972 78.536C57.2782 78.536 57.7267 78.6335 58.1427 78.8285C58.5587 79.0192 58.9205 79.3117 59.2282 79.706C59.5359 80.096 59.7764 80.5922 59.9497 81.1945C60.1274 81.7925 60.2162 82.501 60.2162 83.32ZM58.7732 83.32C58.7732 82.6267 58.7169 82.0503 58.6042 81.591C58.4959 81.1273 58.3507 80.7568 58.1687 80.4795C57.9867 80.2022 57.7765 80.005 57.5382 79.888C57.2999 79.771 57.0529 79.7125 56.7972 79.7125C56.5372 79.7125 56.288 79.771 56.0497 79.888C55.8157 80.005 55.6077 80.2022 55.4257 80.4795C55.2437 80.7568 55.0985 81.1273 54.9902 81.591C54.8819 82.0503 54.8277 82.6267 54.8277 83.32C54.8277 84.0133 54.8819 84.5918 54.9902 85.0555C55.0985 85.5148 55.2437 85.8832 55.4257 86.1605C55.6077 86.4378 55.8157 86.635 56.0497 86.752C56.288 86.869 56.5372 86.9275 56.7972 86.9275C57.0529 86.9275 57.2999 86.869 57.5382 86.752C57.7765 86.635 57.9867 86.4378 58.1687 86.1605C58.3507 85.8832 58.4959 85.5148 58.6042 85.0555C58.7169 84.5918 58.7732 84.0133 58.7732 83.32ZM70.2159 81.37L66.5629 89.885C66.5153 89.9847 66.4568 90.0627 66.3874 90.119C66.3224 90.1753 66.2206 90.2035 66.0819 90.2035H65.0484L66.2704 87.5515L63.5664 81.37H64.7819C64.8989 81.37 64.9878 81.3982 65.0484 81.4545C65.1134 81.5065 65.1611 81.5693 65.1914 81.643L66.7709 85.4065C66.8099 85.5148 66.8446 85.6232 66.8749 85.7315C66.9096 85.8355 66.9421 85.9438 66.9724 86.0565C67.0071 85.9438 67.0418 85.8333 67.0764 85.725C67.1111 85.6167 67.1501 85.5083 67.1934 85.4L68.7079 81.643C68.7383 81.565 68.7881 81.5 68.8574 81.448C68.9311 81.396 69.0113 81.37 69.0979 81.37H70.2159ZM75.2835 83.9375C75.2835 83.7035 75.2488 83.4868 75.1795 83.2875C75.1145 83.0838 75.017 82.9083 74.887 82.761C74.757 82.6093 74.5945 82.4923 74.3995 82.41C74.2088 82.3233 73.9878 82.28 73.7365 82.28C73.2295 82.28 72.8308 82.4252 72.5405 82.7155C72.2502 83.0058 72.066 83.4132 71.988 83.9375H75.2835ZM71.949 84.7955C71.9663 85.1725 72.0248 85.4997 72.1245 85.777C72.2242 86.05 72.3563 86.2775 72.521 86.4595C72.69 86.6415 72.8893 86.778 73.119 86.869C73.353 86.9557 73.613 86.999 73.899 86.999C74.172 86.999 74.4082 86.9687 74.6075 86.908C74.8068 86.843 74.9802 86.7737 75.1275 86.7C75.2748 86.622 75.4005 86.5527 75.5045 86.492C75.6085 86.427 75.7038 86.3945 75.7905 86.3945C75.9032 86.3945 75.9898 86.4378 76.0505 86.5245L76.447 87.038C76.2823 87.233 76.096 87.3977 75.888 87.532C75.68 87.6663 75.459 87.7768 75.225 87.8635C74.991 87.9458 74.7505 88.0043 74.5035 88.039C74.2565 88.078 74.016 88.0975 73.782 88.0975C73.3227 88.0975 72.8958 88.0217 72.5015 87.87C72.1115 87.714 71.7713 87.4865 71.481 87.1875C71.195 86.8885 70.9697 86.518 70.805 86.076C70.6447 85.634 70.5645 85.1248 70.5645 84.5485C70.5645 84.0892 70.636 83.6602 70.779 83.2615C70.9263 82.8628 71.1343 82.5162 71.403 82.2215C71.676 81.9268 72.0053 81.695 72.391 81.526C72.781 81.3527 73.2208 81.266 73.7105 81.266C74.1178 81.266 74.4948 81.3332 74.8415 81.4675C75.1882 81.5975 75.4872 81.7903 75.7385 82.046C75.9898 82.3017 76.1848 82.6158 76.3235 82.9885C76.4665 83.3568 76.538 83.7772 76.538 84.2495C76.538 84.4662 76.5142 84.6113 76.4665 84.685C76.4188 84.7587 76.3322 84.7955 76.2065 84.7955H71.949ZM81.3837 85.101C80.8854 85.1183 80.4651 85.1595 80.1227 85.2245C79.7804 85.2852 79.5031 85.3653 79.2907 85.465C79.0784 85.5603 78.9246 85.6752 78.8292 85.8095C78.7382 85.9438 78.6927 86.0912 78.6927 86.2515C78.6927 86.4075 78.7166 86.5418 78.7642 86.6545C78.8162 86.7628 78.8856 86.8538 78.9722 86.9275C79.0632 86.9968 79.1672 87.0488 79.2842 87.0835C79.4056 87.1138 79.5377 87.129 79.6807 87.129C80.0447 87.129 80.3567 87.0618 80.6167 86.9275C80.8811 86.7888 81.1367 86.5895 81.3837 86.3295V85.101ZM77.6787 82.293C78.4284 81.5953 79.3211 81.2465 80.3567 81.2465C80.7381 81.2465 81.0761 81.3093 81.3707 81.435C81.6697 81.5563 81.9189 81.7297 82.1182 81.955C82.3219 82.1803 82.4757 82.449 82.5797 82.761C82.6881 83.0687 82.7422 83.411 82.7422 83.788V88H82.1182C81.9839 88 81.8821 87.9805 81.8127 87.9415C81.7434 87.8982 81.6849 87.8137 81.6372 87.688L81.5007 87.1485C81.3317 87.3002 81.1649 87.4367 81.0002 87.558C80.8356 87.675 80.6644 87.7747 80.4867 87.857C80.3134 87.9393 80.1249 88 79.9212 88.039C79.7219 88.0823 79.5009 88.104 79.2582 88.104C78.9896 88.104 78.7382 88.0672 78.5042 87.9935C78.2746 87.9198 78.0752 87.8093 77.9062 87.662C77.7372 87.5103 77.6029 87.324 77.5032 87.103C77.4079 86.882 77.3602 86.622 77.3602 86.323C77.3602 86.0673 77.4274 85.8182 77.5617 85.5755C77.7004 85.3328 77.9257 85.1162 78.2377 84.9255C78.5541 84.7305 78.9679 84.5702 79.4792 84.4445C79.9949 84.3188 80.6297 84.2473 81.3837 84.23V83.788C81.3837 83.3113 81.2819 82.956 81.0782 82.722C80.8746 82.488 80.5756 82.371 80.1812 82.371C79.9126 82.371 79.6872 82.4057 79.5052 82.475C79.3232 82.54 79.1651 82.6115 79.0307 82.6895C78.8964 82.7675 78.7772 82.8412 78.6732 82.9105C78.5692 82.9755 78.4587 83.008 78.3417 83.008C78.2464 83.008 78.1641 82.9842 78.0947 82.9365C78.0297 82.8845 77.9756 82.8217 77.9322 82.748L77.6787 82.293ZM85.6988 82.5985C85.9068 82.1782 86.1582 81.8488 86.4528 81.6105C86.7475 81.3678 87.1007 81.2465 87.5123 81.2465C87.6553 81.2465 87.7897 81.2638 87.9153 81.2985C88.041 81.3288 88.1537 81.3765 88.2533 81.4415L88.1558 82.4945C88.1385 82.5682 88.1103 82.6202 88.0713 82.6505C88.0367 82.6765 87.989 82.6895 87.9283 82.6895C87.8633 82.6895 87.7702 82.6787 87.6488 82.657C87.5275 82.631 87.3997 82.618 87.2653 82.618C87.0703 82.618 86.897 82.6462 86.7453 82.7025C86.598 82.7588 86.4637 82.8412 86.3423 82.9495C86.2253 83.0578 86.1213 83.19 86.0303 83.346C85.9393 83.502 85.8548 83.6797 85.7768 83.879V88H84.3793V81.37H85.1918C85.3392 81.37 85.441 81.3982 85.4973 81.4545C85.5537 81.5065 85.5927 81.5997 85.6143 81.734L85.6988 82.5985ZM38.8882 99.37L36.7627 106H35.6512C35.5212 106 35.4302 105.915 35.3782 105.746L34.0587 101.619C34.024 101.502 33.9915 101.385 33.9612 101.268C33.9352 101.151 33.9113 101.036 33.8897 100.923C33.842 101.157 33.7835 101.391 33.7142 101.625L32.3752 105.746C32.3275 105.915 32.2257 106 32.0697 106H31.0102L28.8847 99.37H29.9897C30.098 99.37 30.1868 99.3982 30.2562 99.4545C30.3298 99.5065 30.3775 99.5693 30.3992 99.643L31.5042 103.504C31.5475 103.682 31.5843 103.855 31.6147 104.024C31.6493 104.189 31.6797 104.353 31.7057 104.518C31.749 104.353 31.7945 104.189 31.8422 104.024C31.8898 103.855 31.9397 103.682 31.9917 103.504L33.2332 99.6235C33.2548 99.5455 33.2982 99.4827 33.3632 99.435C33.4325 99.383 33.5148 99.357 33.6102 99.357H34.2212C34.3208 99.357 34.4053 99.383 34.4747 99.435C34.544 99.4827 34.5895 99.5455 34.6112 99.6235L35.8202 103.504C35.8722 103.682 35.9198 103.855 35.9632 104.024C36.0108 104.193 36.0542 104.362 36.0932 104.531C36.1235 104.366 36.156 104.199 36.1907 104.03C36.2253 103.861 36.2665 103.686 36.3142 103.504L37.4387 99.643C37.4647 99.565 37.5123 99.5 37.5817 99.448C37.651 99.396 37.7355 99.37 37.8352 99.37H38.8882ZM43.3613 103.101C42.863 103.118 42.4426 103.159 42.1003 103.224C41.758 103.285 41.4806 103.365 41.2683 103.465C41.056 103.56 40.9021 103.675 40.8068 103.809C40.7158 103.944 40.6703 104.091 40.6703 104.251C40.6703 104.407 40.6941 104.542 40.7418 104.654C40.7938 104.763 40.8631 104.854 40.9498 104.927C41.0408 104.997 41.1448 105.049 41.2618 105.083C41.3831 105.114 41.5153 105.129 41.6583 105.129C42.0223 105.129 42.3343 105.062 42.5943 104.927C42.8586 104.789 43.1143 104.589 43.3613 104.33V103.101ZM39.6563 100.293C40.406 99.5953 41.2986 99.2465 42.3343 99.2465C42.7156 99.2465 43.0536 99.3093 43.3483 99.435C43.6473 99.5563 43.8965 99.7297 44.0958 99.955C44.2995 100.18 44.4533 100.449 44.5573 100.761C44.6656 101.069 44.7198 101.411 44.7198 101.788V106H44.0958C43.9615 106 43.8596 105.98 43.7903 105.941C43.721 105.898 43.6625 105.814 43.6148 105.688L43.4783 105.148C43.3093 105.3 43.1425 105.437 42.9778 105.558C42.8131 105.675 42.642 105.775 42.4643 105.857C42.291 105.939 42.1025 106 41.8988 106.039C41.6995 106.082 41.4785 106.104 41.2358 106.104C40.9671 106.104 40.7158 106.067 40.4818 105.993C40.2521 105.92 40.0528 105.809 39.8838 105.662C39.7148 105.51 39.5805 105.324 39.4808 105.103C39.3855 104.882 39.3378 104.622 39.3378 104.323C39.3378 104.067 39.405 103.818 39.5393 103.575C39.678 103.333 39.9033 103.116 40.2153 102.925C40.5316 102.73 40.9455 102.57 41.4568 102.444C41.9725 102.319 42.6073 102.247 43.3613 102.23V101.788C43.3613 101.311 43.2595 100.956 43.0558 100.722C42.8521 100.488 42.5531 100.371 42.1588 100.371C41.8901 100.371 41.6648 100.406 41.4828 100.475C41.3008 100.54 41.1426 100.611 41.0083 100.689C40.874 100.767 40.7548 100.841 40.6508 100.91C40.5468 100.975 40.4363 101.008 40.3193 101.008C40.224 101.008 40.1416 100.984 40.0723 100.936C40.0073 100.884 39.9531 100.822 39.9098 100.748L39.6563 100.293ZM47.6764 100.598C47.8844 100.178 48.1357 99.8488 48.4304 99.6105C48.725 99.3678 49.0782 99.2465 49.4899 99.2465C49.6329 99.2465 49.7672 99.2638 49.8929 99.2985C50.0185 99.3288 50.1312 99.3765 50.2309 99.4415L50.1334 100.494C50.116 100.568 50.0879 100.62 50.0489 100.65C50.0142 100.676 49.9665 100.689 49.9059 100.689C49.8409 100.689 49.7477 100.679 49.6264 100.657C49.505 100.631 49.3772 100.618 49.2429 100.618C49.0479 100.618 48.8745 100.646 48.7229 100.702C48.5755 100.759 48.4412 100.841 48.3199 100.949C48.2029 101.058 48.0989 101.19 48.0079 101.346C47.9169 101.502 47.8324 101.68 47.7544 101.879V106H46.3569V99.37H47.1694C47.3167 99.37 47.4185 99.3982 47.4749 99.4545C47.5312 99.5065 47.5702 99.5997 47.5919 99.734L47.6764 100.598ZM52.4752 100.598C52.6832 100.178 52.9345 99.8488 53.2292 99.6105C53.5239 99.3678 53.877 99.2465 54.2887 99.2465C54.4317 99.2465 54.566 99.2638 54.6917 99.2985C54.8174 99.3288 54.93 99.3765 55.0297 99.4415L54.9322 100.494C54.9149 100.568 54.8867 100.62 54.8477 100.65C54.813 100.676 54.7654 100.689 54.7047 100.689C54.6397 100.689 54.5465 100.679 54.4252 100.657C54.3039 100.631 54.176 100.618 54.0417 100.618C53.8467 100.618 53.6734 100.646 53.5217 100.702C53.3744 100.759 53.24 100.841 53.1187 100.949C53.0017 101.058 52.8977 101.19 52.8067 101.346C52.7157 101.502 52.6312 101.68 52.5532 101.879V106H51.1557V99.37H51.9682C52.1155 99.37 52.2174 99.3982 52.2737 99.4545C52.33 99.5065 52.369 99.5997 52.3907 99.734L52.4752 100.598ZM59.3955 103.101C58.8971 103.118 58.4768 103.159 58.1345 103.224C57.7921 103.285 57.5148 103.365 57.3025 103.465C57.0901 103.56 56.9363 103.675 56.841 103.809C56.75 103.944 56.7045 104.091 56.7045 104.251C56.7045 104.407 56.7283 104.542 56.776 104.654C56.828 104.763 56.8973 104.854 56.984 104.927C57.075 104.997 57.179 105.049 57.296 105.083C57.4173 105.114 57.5495 105.129 57.6925 105.129C58.0565 105.129 58.3685 105.062 58.6285 104.927C58.8928 104.789 59.1485 104.589 59.3955 104.33V103.101ZM55.6905 100.293C56.4401 99.5953 57.3328 99.2465 58.3685 99.2465C58.7498 99.2465 59.0878 99.3093 59.3825 99.435C59.6815 99.5563 59.9306 99.7297 60.13 99.955C60.3336 100.18 60.4875 100.449 60.5915 100.761C60.6998 101.069 60.754 101.411 60.754 101.788V106H60.13C59.9956 106 59.8938 105.98 59.8245 105.941C59.7551 105.898 59.6966 105.814 59.649 105.688L59.5125 105.148C59.3435 105.3 59.1766 105.437 59.012 105.558C58.8473 105.675 58.6761 105.775 58.4985 105.857C58.3251 105.939 58.1366 106 57.933 106.039C57.7336 106.082 57.5126 106.104 57.27 106.104C57.0013 106.104 56.75 106.067 56.516 105.993C56.2863 105.92 56.087 105.809 55.918 105.662C55.749 105.51 55.6146 105.324 55.515 105.103C55.4196 104.882 55.372 104.622 55.372 104.323C55.372 104.067 55.4391 103.818 55.5735 103.575C55.7121 103.333 55.9375 103.116 56.2495 102.925C56.5658 102.73 56.9796 102.57 57.491 102.444C58.0066 102.319 58.6415 102.247 59.3955 102.23V101.788C59.3955 101.311 59.2936 100.956 59.09 100.722C58.8863 100.488 58.5873 100.371 58.193 100.371C57.9243 100.371 57.699 100.406 57.517 100.475C57.335 100.54 57.1768 100.611 57.0425 100.689C56.9081 100.767 56.789 100.841 56.685 100.91C56.581 100.975 56.4705 101.008 56.3535 101.008C56.2581 101.008 56.1758 100.984 56.1065 100.936C56.0415 100.884 55.9873 100.822 55.944 100.748L55.6905 100.293ZM63.6976 100.247C63.8406 100.1 63.9879 99.968 64.1396 99.851C64.2956 99.7297 64.4602 99.6257 64.6336 99.539C64.8069 99.4523 64.9911 99.3852 65.1861 99.3375C65.3811 99.2898 65.5934 99.266 65.8231 99.266C66.1871 99.266 66.5056 99.3267 66.7786 99.448C67.0559 99.5693 67.2877 99.7405 67.4741 99.9615C67.6647 100.182 67.8077 100.449 67.9031 100.761C67.9984 101.069 68.0461 101.409 68.0461 101.781V106H66.6551V101.781C66.6551 101.335 66.5511 100.988 66.3431 100.741C66.1394 100.494 65.8274 100.371 65.4071 100.371C65.0951 100.371 64.8047 100.442 64.5361 100.585C64.2717 100.728 64.0226 100.923 63.7886 101.17V106H62.3911V99.37H63.2361C63.4267 99.37 63.5481 99.4588 63.6001 99.6365L63.6976 100.247ZM71.7148 106.104C71.1645 106.104 70.7398 105.95 70.4408 105.642C70.1461 105.33 69.9988 104.893 69.9988 104.33V100.468H69.2708C69.1928 100.468 69.1256 100.445 69.0693 100.397C69.013 100.345 68.9848 100.269 68.9848 100.169V99.604L70.0573 99.448L70.3628 97.5305C70.3845 97.4568 70.4213 97.3983 70.4733 97.355C70.5253 97.3073 70.5946 97.2835 70.6813 97.2835H71.3963V99.461H73.2358V100.468H71.3963V104.232C71.3963 104.47 71.4548 104.652 71.5718 104.778C71.6888 104.904 71.8448 104.966 72.0398 104.966C72.1481 104.966 72.2413 104.953 72.3193 104.927C72.3973 104.897 72.4645 104.867 72.5208 104.836C72.5771 104.802 72.6248 104.771 72.6638 104.745C72.7071 104.715 72.7483 104.7 72.7873 104.7C72.8653 104.7 72.9281 104.743 72.9758 104.83L73.3918 105.512C73.1751 105.703 72.9195 105.85 72.6248 105.954C72.3301 106.054 72.0268 106.104 71.7148 106.104ZM80.2198 99.37L76.5668 107.885C76.5192 107.985 76.4607 108.063 76.3913 108.119C76.3263 108.175 76.2245 108.204 76.0858 108.204H75.0523L76.2743 105.551L73.5703 99.37H74.7858C74.9028 99.37 74.9917 99.3982 75.0523 99.4545C75.1173 99.5065 75.165 99.5693 75.1953 99.643L76.7748 103.406C76.8138 103.515 76.8485 103.623 76.8788 103.731C76.9135 103.835 76.946 103.944 76.9763 104.056C77.011 103.944 77.0457 103.833 77.0803 103.725C77.115 103.617 77.154 103.508 77.1973 103.4L78.7118 99.643C78.7422 99.565 78.792 99.5 78.8613 99.448C78.935 99.396 79.0152 99.37 79.1018 99.37H80.2198Z" fill="#515050"/>
</svg>
