<svg xmlns="http://www.w3.org/2000/svg" width="59.197" height="62.853" viewBox="0 0 59.197 62.853">
    <path data-name="Path 7921" d="M215.146 10.875h13.977a.864.864 0 0 1 .611.253l2.392 2.392a.284.284 0 0 0 .485-.2v-1.58a.864.864 0 0 1 .865-.865h.9a1.345 1.345 0 0 0 1.345-1.345V1.345A1.345 1.345 0 0 0 234.381 0h-19.235a1.345 1.345 0 0 0-1.346 1.345v8.186a1.345 1.345 0 0 0 1.346 1.344zm0 0" transform="translate(-187.554)" style="fill:#a9c0d3"/>
    <path data-name="Path 7922" d="M253.742 53.158h-13.89a.934.934 0 1 1 0-1.869h13.89a.934.934 0 1 1 0 1.869zm0 0" transform="translate(-209.588 -44.993)" style="fill:#86a4b7"/>
    <path data-name="Path 7923" d="M305.448 24.99h-6.655a.934.934 0 0 1 0-1.869h6.655a.934.934 0 1 1 0 1.869zm0 0" transform="translate(-261.294 -20.283)" style="fill:#86a4b7"/>
    <path data-name="Path 7924" d="M138.994 126.8h-13.977a.865.865 0 0 0-.611.253l-2.392 2.392a.284.284 0 0 1-.484-.2v-1.58a.865.865 0 0 0-.865-.865h-.9a1.345 1.345 0 0 1-1.345-1.345v-8.186a1.345 1.345 0 0 1 1.345-1.345h19.236a1.345 1.345 0 0 1 1.345 1.345v8.186a1.345 1.345 0 0 1-1.352 1.345zm0 0" transform="translate(-103.877 -101.698)" style="fill:#d9e0ed"/>
    <path data-name="Path 7925" d="M158.356 169.084h-13.89a.934.934 0 0 1 0-1.869h13.89a.934.934 0 0 1 0 1.869zm0 0" transform="translate(-125.911 -146.687)" style="fill:#a9c0d3"/>
    <path data-name="Path 7926" d="M151.12 140.916h-6.654a.934.934 0 0 1 0-1.869h6.654a.934.934 0 0 1 0 1.869zm0 0" transform="translate(-125.911 -121.977)" style="fill:#a9c0d3"/>
    <path data-name="Path 7927" d="M119.525 298.45H85.93a3.121 3.121 0 0 1-3.122-3.122v-.12a.258.258 0 0 1 .258-.258h39.321a.259.259 0 0 1 .258.258v.12a3.121 3.121 0 0 1-3.12 3.122zm0 0" transform="translate(-72.643 -258.741)" style="fill:#c9ad91"/>
    <path data-name="Path 7928" d="M122.388 294.949H83.067a.258.258 0 0 0-.258.258v.12a3.107 3.107 0 0 0 .317 1.371h39.2a3.108 3.108 0 0 0 .317-1.371v-.12a.258.258 0 0 0-.255-.258zm0 0" transform="translate(-72.643 -258.741)" style="fill:#bd9b7b"/>
    <path data-name="Path 7929" d="M31.677 210.682h-4.228l.56-4.092.365.023 2.913.178.2 2.016zm0 0" transform="translate(-24.079 -181.229)" style="fill:#fcc1b9"/>
    <g data-name="Group 9994">
        <path data-name="Path 7930" d="M15.759 396.193H.935a.934.934 0 1 1 0-1.869h14.824a.934.934 0 0 1 0 1.869zm0 0" transform="translate(0 -345.917)" style="fill:#a17852"/>
        <path data-name="Path 7931" d="M.935 408.769a.967.967 0 0 1-.156-.013.935.935 0 0 1-.766-1.077L2.13 395.1a.934.934 0 0 1 1.842.31l-2.117 12.58a.935.935 0 0 1-.92.779zm0 0" transform="translate(.001 -345.916)" style="fill:#a17852"/>
        <path data-name="Path 7932" d="M110.416 408.769a.934.934 0 0 1-.925-.818l-1.578-12.577a.934.934 0 1 1 1.854-.233l1.578 12.577a.934.934 0 0 1-.811 1.043.973.973 0 0 1-.118.008zm0 0" transform="translate(-94.658 -345.916)" style="fill:#a17852"/>
    </g>
    <path data-name="Path 7933" d="m7.613 349.523.314 3.248a3.525 3.525 0 0 0 3.509 3.186h9.423l1.225 9.25a.528.528 0 0 0 1.034.064l2.439-9.333a3.531 3.531 0 0 0-3.095-4.409l-7.437-.68zm0 0" transform="translate(-6.678 -306.616)" style="fill:#354968"/>
    <path data-name="Path 7934" d="m13.468 240.78 3.635 1.691h11.563v-.2a3.126 3.126 0 0 0-2.425-3.046l-8.579-.688-3.073-2.613a4.087 4.087 0 0 0-4.54-.208l-.525.317a2.091 2.091 0 0 0-1 1.636l-.908 11.5 7.968 1.377-.65-9.087" transform="translate(-6.678 -206.263)" style="fill:#48bbed"/>
    <path data-name="Path 7935" d="m56.993 286.862.451 8.016 1.453.251-.65-9.087a.864.864 0 0 0-1.254.82zm0 0" transform="translate(-49.995 -250.844)" style="fill:#009be6"/>
    <path data-name="Path 7936" d="m33.632 239.226-8.579-.688-3.073-2.613a4.087 4.087 0 0 0-4.54-.208l-.525.317a2.09 2.09 0 0 0-.877 1.06l.062-.037a4.086 4.086 0 0 1 4.54.208l3.073 2.613 8.579.688a3.123 3.123 0 0 1 2.207 1.906h1.558v-.2a3.126 3.126 0 0 0-2.425-3.046zm0 0" transform="translate(-14.07 -206.263)" style="fill:#009be6"/>
    <path data-name="Path 7937" d="M38.1 208.967a3.577 3.577 0 0 1-3.051-2.046 3.171 3.171 0 0 1-.065-.148l2.912.178zm0 0" transform="translate(-30.686 -181.39)" style="fill:#f2aa99"/>
    <path data-name="Path 7938" d="M25.054 137.8v3.412a3.582 3.582 0 1 1-7.163 0V137.8a2.586 2.586 0 0 1 2.586-2.586h1.991a2.584 2.584 0 0 1 2.553 2.174 2.47 2.47 0 0 1 .033.412zm0 0" transform="translate(-15.694 -118.612)" style="fill:#fcc1b9"/>
    <path data-name="Path 7939" d="m25.02 137.385-3.792 1.5a.847.847 0 0 0-.536.786v.9a.844.844 0 0 1-.359.692l-2.1 1.474a3.574 3.574 0 0 1-.342-1.53V137.8a2.586 2.586 0 0 1 2.586-2.586h1.991a2.584 2.584 0 0 1 2.552 2.171zm0 0" transform="translate(-15.694 -118.612)" style="fill:#354968"/>
    <path data-name="Path 7940" d="M424.548 210.682h-4.228l.179-1.785.211-2.107 2.952-.18.326-.02zm0 0" transform="translate(-368.721 -181.229)" style="fill:#fcc1b9"/>
    <path data-name="Path 7941" d="M361.989 396.193h-14.824a.934.934 0 0 1 0-1.869h14.824a.934.934 0 1 1 0 1.869zm0 0" transform="translate(-303.727 -345.917)" style="fill:#a17852"/>
    <path data-name="Path 7942" d="M452.788 408.769a.935.935 0 0 1-.92-.779l-2.118-12.577a.934.934 0 0 1 1.843-.31l2.118 12.577a.934.934 0 0 1-.766 1.077.963.963 0 0 1-.157.012zm0 0" transform="translate(-394.526 -345.915)" style="fill:#a17852"/>
    <path data-name="Path 7943" d="M347.165 408.768a.973.973 0 0 1-.117-.007.934.934 0 0 1-.811-1.043l1.578-12.577a.934.934 0 1 1 1.854.233l-1.578 12.577a.935.935 0 0 1-.926.817zm0 0" transform="translate(-303.725 -345.915)" style="fill:#a17852"/>
    <path data-name="Path 7944" d="m345.54 349.523-.314 3.248a3.526 3.526 0 0 1-3.509 3.186h-9.423l-1.225 9.25a.528.528 0 0 1-1.034.064l-2.439-9.333a3.531 3.531 0 0 1 3.095-4.409l7.437-.68zm0 0" transform="translate(-287.278 -306.616)" style="fill:#354968"/>
    <path data-name="Path 7945" d="m345.75 410.051.313 1.2a.528.528 0 0 0 1.033-.064l1.225-9.25a1.708 1.708 0 0 0-1.693 1.483zm0 0" transform="translate(-303.305 -352.592)" style="fill:#2a3a51"/>
    <path data-name="Path 7946" d="m435.063 349.8-.288 2.976a3.525 3.525 0 0 1-3.509 3.186h1.5a3.526 3.526 0 0 0 3.509-3.186l.314-3.248zm0 0" transform="translate(-378.323 -306.616)" style="fill:#2a3a51"/>
    <path data-name="Path 7947" d="m318.3 240.78-3.635 1.691h-11.56v-.2a3.125 3.125 0 0 1 2.425-3.046l8.579-.688 3.073-2.613a4.087 4.087 0 0 1 4.54-.208l.524.317a2.091 2.091 0 0 1 1 1.636l.908 11.5-7.968 1.377.65-9.087" transform="translate(-265.896 -206.263)" style="fill:#ffa91e"/>
    <path data-name="Path 7948" d="M304.56 241.266c6.431.216 9.743-.935 11.59-2.106.634-.4 2.824-1.9 4.683-1.19a2.816 2.816 0 0 1 1.144.8c1.081 1.277.494 3.094.361 5.166a14.962 14.962 0 0 0 .71 5.5l1.515-.262-.908-11.5a2.093 2.093 0 0 0-1-1.636l-.524-.317a4.087 4.087 0 0 0-4.54.208l-3.073 2.613-8.579.688a3.124 3.124 0 0 0-2.368 2.46zm0 0" transform="translate(-266.3 -206.263)" style="fill:#ef9218"/>
    <path data-name="Path 7949" d="M424.944 206.754a9.154 9.154 0 0 1-.1.24 3.577 3.577 0 0 1-3.059 2.047l.211-2.107zm0 0" transform="translate(-370.003 -181.373)" style="fill:#f2aa99"/>
    <path data-name="Path 7950" d="M413.132 137.8v3.412a3.582 3.582 0 0 1-7.163 0V137.8a2.524 2.524 0 0 1 .034-.412 2.585 2.585 0 0 1 2.553-2.174h1.991a2.586 2.586 0 0 1 2.585 2.586zm0 0" transform="translate(-356.131 -118.612)" style="fill:#fcc1b9"/>
    <path data-name="Path 7951" d="M413.372 137.8v3.412a3.567 3.567 0 0 1-.343 1.53l-2.1-1.474a.844.844 0 0 1-.359-.692v-.9a.846.846 0 0 0-.536-.786l-3.792-1.5a2.585 2.585 0 0 1 2.553-2.174h1.991a2.586 2.586 0 0 1 2.586 2.584zm0 0" transform="translate(-356.371 -118.612)" style="fill:#354968"/>
    <path data-name="Path 7952" d="M188.217 344.422v.079a1.164 1.164 0 0 1-.016.136.852.852 0 0 1-.021.1.016.016 0 0 0 0 .008 1.25 1.25 0 0 1-1.207.929h-14.52a1.25 1.25 0 0 1-.193-2.485l3.69-.577a2.592 2.592 0 0 0 2.19-2.557v-16.594h3.141v16.591a2.588 2.588 0 0 0 2.19 2.557l3.69.577a1.234 1.234 0 0 1 .515.2 1.448 1.448 0 0 1 .129.1 1.239 1.239 0 0 1 .334.491l.019.052a1.255 1.255 0 0 1 .059.393zm0 0" transform="translate(-150.186 -283.753)" style="fill:#a17852"/>
    <path data-name="Path 7953" d="M188.217 344.422v.079a1.164 1.164 0 0 1-.016.136c-.006.034-.014.066-.021.1a.016.016 0 0 0 0 .008 1.294 1.294 0 0 1-1.251.929h-.193c-.016-.035-.162-.033-.414 0h-13.869a1.25 1.25 0 0 1-.193-2.485l3.69-.577a2.577 2.577 0 0 0 1.613-.93c1.355-.293 2.348-.787 2.348-1.608v-13.065a1.774 1.774 0 0 0-1.771-1.773v-1.775h3.141v16.59a2.589 2.589 0 0 0 2.19 2.558l3.69.576a1.246 1.246 0 0 1 .515.2 1.363 1.363 0 0 1 .129.1 1.238 1.238 0 0 1 .334.491.406.406 0 0 1 .019.052 1.26 1.26 0 0 1 .059.394zm0 0" transform="translate(-150.186 -283.753)" style="fill:#8a6745"/>
</svg>
