<svg xmlns="http://www.w3.org/2000/svg" width="222.518" height="245.364" viewBox="0 0 222.518 245.364">
    <g data-name="Group 16513">
        <g data-name="Group 16510">
            <path data-name="Path 18699" d="M316.346 440.356H222.78a12.49 12.49 0 1 1 0-24.98h26.363a2.776 2.776 0 1 1 0 5.551H222.78a6.939 6.939 0 1 0 0 13.878h93.566a15.908 15.908 0 0 0 11.25-27.159l-13.263-13.269a2.776 2.776 0 0 1 3.926-3.925l13.262 13.267a21.46 21.46 0 0 1-15.175 36.636z" transform="translate(-123.061 -194.991)" style="fill:#d7deed"/>
            <path data-name="Path 18703" d="M248.35 191.893a38.844 38.844 0 0 0-54.952 0l-1.965 1.959-68.691-68.69 1.96-1.96A38.859 38.859 0 1 0 69.75 68.246l-1.965 1.965a49.969 49.969 0 0 0 0 70.656L175.734 248.81a49.962 49.962 0 0 0 70.656 0l1.96-1.965a38.852 38.852 0 0 0 0-54.952z" transform="translate(-53.155 -46.945)" style="fill:#3256c1"/>
            <path data-name="Path 18704" d="M359.167 290.985a38.851 38.851 0 0 1 0 54.951l-1.96 1.965-54.957-54.957 1.965-1.959a38.844 38.844 0 0 1 54.952 0z" transform="translate(-163.972 -146.037)" style="fill:#163eb1"/>
            <path data-name="Path 18705" d="M136.427 68.246a38.859 38.859 0 0 1 0 54.957l-1.96 1.96L79.51 70.211l1.965-1.965a38.845 38.845 0 0 1 54.952 0z" transform="translate(-64.88 -46.945)" style="fill:#163eb1"/>
            <path data-name="Path 18715" d="M211.576 263.351a2.765 2.765 0 0 1-1.962-.813l-113.8-113.8a2.776 2.776 0 0 1 3.925-3.925l113.8 113.8a2.776 2.776 0 0 1-1.963 4.739z" transform="translate(-71.771 -85.712)" style="fill:#163eb1"/>
        </g>
        <g data-name="Group 16512">
            <path data-name="Path 18698" d="M392.838 147.349a38.113 38.113 0 0 1-15.2 30.487l1.571 13.123-14.528-6.778a38.185 38.185 0 0 1-48.163-36.832c0-1.155.056-2.293.156-3.425a38.2 38.2 0 0 0 25.586-32.663 38.175 38.175 0 0 1 50.577 36.089z" transform="translate(-170.319 -70.226)" style="fill:#d7e816"/>
            <g data-name="Group 16511">
                <path data-name="Path 18707" d="M277.268 113.253a38.375 38.375 0 0 1-22.422.738l-14.528 6.778 1.577-13.129a38.159 38.159 0 1 1 61.113-30.482q0 1.732-.155 3.431a38.2 38.2 0 0 1-25.585 32.663z" transform="translate(-130.356 -39)" style="fill:#07cc66"/>
                <path data-name="Path 18716" d="M286.083 84.551h-33.307a2.776 2.776 0 1 1 0-5.551h33.307a2.776 2.776 0 0 1 0 5.551z" transform="translate(-140.726 -56.795)" style="fill:#fff"/>
                <path data-name="Path 18717" d="M297.185 104.551h-44.41a2.776 2.776 0 1 1 0-5.551h44.41a2.776 2.776 0 1 1 0 5.551z" transform="translate(-140.726 -65.693)" style="fill:#fff"/>
                <path data-name="Path 18718" d="M297.185 124.551h-44.41a2.776 2.776 0 1 1 0-5.551h44.41a2.776 2.776 0 1 1 0 5.551z" transform="translate(-140.726 -74.59)" style="fill:#fff"/>
            </g>
        </g>
    </g>
</svg>
